<?xml version="1.0" encoding="UTF-8" standalone="no"?>
<svg xmlns="http://www.w3.org/2000/svg" xmlns:xlink="http://www.w3.org/1999/xlink" width="79.365mm" height="77.304mm" viewBox="1106.834351 -573.657288 79.364990 77.304169">
    <path transform="matrix(1,0,0,-1,0,0)" style="stroke:none;fill:#500a78;fill-rule:evenodd" d="M1156.854004,572.893127C1152.663086,571.374207,1148.99707,568.578491,1145.680176,564.371765C1144.550049,562.938477,1142.529907,560.873535,1141.19104,559.782959C1137.18396,556.519043,1134.422607,553.03717,1131.96228,548.145874C1131.181641,546.593872,1129.861328,544.551697,1129.028442,543.607788C1126.834351,541.121521,1123.234375,534.277222,1121.956421,530.16272C1120.761353,526.315125,1120.695679,526.228638,1115.652588,521.865967C1114.197632,520.607239,1111.618286,518.222229,1109.920776,516.565857C1107.292358,514.001221,1106.834351,513.384338,1106.834351,512.408691C1106.834351,510.961853,1107.443115,510.714966,1109.553833,511.305939C1111.102295,511.739471,1111.218262,511.722717,1111.70105,510.995605C1112.90625,509.18045,1115.453613,510.694458,1120.750854,516.374146C1125.403809,521.363098,1126.45813,522.099365,1129.996216,522.830994C1132.675659,523.38501,1132.859131,523.380737,1134.479248,522.726135C1135.408325,522.350708,1136.553711,521.663574,1137.024414,521.199097C1138.159668,520.078979,1143.165894,510.163239,1143.165894,509.03476C1143.165894,507.501801,1141.755127,506.46936,1136.81665,504.388062C1131.117065,501.985962,1128.981079,500.933197,1128.409302,500.244293C1128.0625,499.826355,1128.221069,499.442291,1129.257935,498.188568C1129.959351,497.340576,1130.653076,496.519958,1130.799683,496.365021C1130.946289,496.210083,1134.009399,497.540741,1137.606567,499.322083C1143.816528,502.397247,1144.186523,502.533142,1144.931519,502.011383C1145.852173,501.366455,1146.514038,501.536469,1147.835938,502.757416C1148.367432,503.248352,1148.910034,503.542175,1149.04187,503.4104C1149.349976,503.102234,1150.573242,504.200317,1150.573242,504.785156C1150.573242,505.038391,1152.250122,505.789185,1154.461792,506.526123C1158.769165,507.961395,1160.317993,508.272675,1159.75061,507.589081C1159.276611,507.017944,1159.659668,506.699677,1160.820801,506.699677C1161.433228,506.699677,1162.463379,507.261841,1163.672119,508.255676C1166.279419,510.399536,1169.648804,511.211182,1179.838989,512.150024C1185.674438,512.687622,1186.199341,512.900146,1186.199341,514.724976C1186.199341,515.541748,1186.145386,515.556091,1183.818359,515.356567C1182.508911,515.244263,1179.696289,515.115601,1177.568115,515.070679C1172.434204,514.962219,1172.40271,515.158813,1176.824829,519.722839C1180.034912,523.036011,1180.98938,524.689087,1179.692261,524.689087C1179.411377,524.689087,1177.705566,523.311035,1175.901489,521.626831C1170.242798,516.343872,1168.376709,514.952271,1166.091064,514.310974C1164.100464,513.752441,1163.91626,513.757446,1161.882935,514.424988C1159.852783,515.091431,1158.466675,515.899963,1154.70813,518.610046L1153.022949,519.825195L1155.8573,520.806641C1165.106567,524.009338,1171.494507,531.060669,1174.056152,540.895569C1174.784424,543.691345,1174.68396,547.882751,1173.799072,551.629578C1173.130005,554.462402,1173.084717,555.164673,1173.420898,557.493347C1173.967529,561.281128,1174.295166,561.969116,1175.684448,562.247192C1177.737793,562.658264,1181.261108,563.889893,1181.261108,564.196655C1181.261108,564.57196,1179.562988,565.110962,1176.88269,565.586304C1175.735596,565.789795,1174.763062,565.996521,1174.721436,566.045776C1174.679932,566.095032,1174.320435,566.781067,1173.922607,567.570313C1172.969849,569.460571,1170.703979,571.468872,1168.262939,572.586304C1166.666748,573.317139,1165.617676,573.513733,1162.753296,573.618958C1159.688843,573.731506,1158.89917,573.634338,1156.854004,572.893127zM1165.019287,566.154724C1165.735596,565.291504,1165.331665,564.032837,1164.299683,563.912842C1163.022949,563.764465,1162.340942,564.654907,1162.859497,565.79303C1163.300537,566.760864,1164.367798,566.939575,1165.019287,566.154724zM1146.164063,519.509949L1150.044189,519.307495L1152.336914,517.708923C1157.524536,514.092041,1158.542603,512.856873,1157.01062,512.038452C1155.120483,511.028625,1148.614136,509.15567,1147.696533,509.357239C1146.123535,509.702728,1144.805176,511.30954,1142.670166,515.483459C1140.45813,519.807922,1140.329346,520.29541,1141.490356,519.949097C1141.92688,519.818909,1144.030029,519.621277,1146.164063,519.509949z"/>
</svg>
