<?xml version="1.0" encoding="UTF-8" standalone="no"?>
<svg xmlns="http://www.w3.org/2000/svg" xmlns:xlink="http://www.w3.org/1999/xlink" width="76.631mm" height="76.692mm" viewBox="1476.534912 -573.363159 76.630737 76.692261">
    <path transform="matrix(1,0,0,-1,0,0)" style="stroke:none;fill:#500a78;fill-rule:evenodd" d="M1508.245239,572.821716C1503.153809,571.895447,1495.975586,569.031006,1493.880981,567.089844C1493.068848,566.337219,1493.012329,566.078491,1493.133789,563.671875C1493.206177,562.239807,1493.369629,560.963745,1493.497314,560.836243C1493.624756,560.708679,1494.574707,561.235657,1495.608032,562.007324C1500.046509,565.321716,1505.383179,567.396057,1511.243408,568.084717C1527.608398,570.00769,1543.091187,559.103882,1547.098511,542.833679C1548.21582,538.297363,1548.211548,531.02124,1547.089111,526.805481C1546.094727,523.070862,1544.029541,518.616333,1541.925293,515.667603C1537.858887,509.968994,1531.286377,505.069946,1525,503.051819C1521.291626,501.861267,1513.744385,500.965393,1513.073608,501.636139C1512.948486,501.761261,1514.023804,502.375549,1515.463135,503.001282C1522.855347,506.214813,1528.519409,512.938293,1530.299194,520.612366C1530.601807,521.91748,1531.001953,525.119385,1531.188354,527.727661C1531.374756,530.335938,1531.688965,533.191406,1531.886597,534.073181C1532.403809,536.380981,1533.76062,538.872437,1535.177734,540.116821C1536.554688,541.325745,1539.837646,542.678528,1541.394531,542.678528C1542.91272,542.678528,1542.932495,543.127319,1541.47583,544.519531C1539.873901,546.050415,1538.894165,546.577759,1536.739014,547.069458C1535.325806,547.391846,1534.819092,547.763489,1533.387939,549.526978C1532.371094,550.780151,1530.932129,552.038147,1529.761963,552.697144C1527.906616,553.741943,1527.652588,553.788391,1523.941895,553.76123C1520.49707,553.735962,1519.709717,553.605347,1516.923828,552.596741C1513.354492,551.304504,1510.120361,550.883057,1508.088623,551.445435C1507.323608,551.657227,1506.648438,551.781372,1506.588379,551.721313C1506.52832,551.661255,1506.847168,550.911621,1507.296631,550.055359C1507.861694,548.97937,1508.610352,548.226318,1509.721191,547.61676L1511.328125,546.734985L1510.118896,544.971313C1508.044922,541.946594,1508.057373,542.13623,1509.854858,540.899475C1510.74292,540.288513,1511.516235,539.843628,1511.573486,539.910828C1511.630737,539.978027,1512.12207,540.747314,1512.665283,541.6203C1516.203125,547.306335,1521.214844,550.38562,1525.269897,549.364563C1526.164551,549.139221,1527.170166,548.652649,1527.504395,548.283264C1528.091064,547.635193,1528.076172,547.618896,1527.079712,547.818115C1526.333008,547.967529,1525.780151,547.814697,1525.082764,547.265991C1522.656616,545.357666,1525.314819,542.108521,1527.849609,543.883911C1529.026123,544.708008,1530.98877,544.891846,1533.609619,544.423523C1536.287964,543.944885,1536.521118,543.605469,1534.439575,543.215149C1530.339844,542.44635,1525.696167,538.320068,1523.201782,533.229614L1521.776123,530.319885L1522.564209,527.978027C1524.2146,523.074097,1523.984375,518.525879,1521.853271,513.930725C1520.801392,511.662689,1518.919678,508.95874,1518.609375,509.269135C1518.53772,509.340698,1518.858398,510.185242,1519.321777,511.145874C1522.424316,517.577209,1521.933105,524.180054,1517.914429,530.061584C1515.780396,533.184875,1513.499512,535.224915,1507.046875,539.78125C1499.992432,544.762695,1495.199219,549.486755,1493.150391,553.477112C1491.476196,556.738037,1490.627808,559.891602,1490.599243,562.960693L1490.57959,565.077087L1489.252319,563.610596C1487.630127,561.818298,1487.100464,560.280823,1486.840698,556.611511C1486.430176,550.813843,1488.231323,546.491333,1493.195435,541.359924C1494.932739,539.564209,1497.811646,536.994568,1499.59314,535.649658C1502.704834,533.300659,1507.056519,529.026611,1506.699951,528.669922C1506.605469,528.575562,1505.922607,528.978882,1505.182129,529.566284C1504.441772,530.153564,1502.120605,531.679199,1500.024048,532.956421C1492.982422,537.245972,1489.403931,540.345459,1486.747314,544.45575C1485.174683,546.888977,1483.739258,551.128601,1483.348145,554.495117L1483.102295,556.611511L1482.265747,554.80188C1479.95105,549.795044,1480.557739,543.135742,1483.810303,537.847534C1486.497192,533.479126,1489.378784,531.000061,1496.627686,526.820435C1501.556763,523.978516,1504.241455,522.106934,1505.499756,520.635315C1506.439819,519.536011,1506.236816,519.273132,1505.082642,520.094971C1504.507324,520.504639,1500.934082,522.334167,1497.14209,524.160583C1493.35022,525.986938,1489.654297,527.920776,1488.928955,528.457886C1482.86377,532.949951,1479.820557,537.439331,1478.452271,543.913086L1478.005005,546.02948L1477.627686,544.61853C1476.627808,540.880005,1476.420532,538.620361,1476.58606,533.259766C1476.730469,528.582397,1476.907593,527.189697,1477.688843,524.588867C1481.737793,511.10849,1492.368652,500.7901,1505.644043,497.455383C1508.289795,496.790741,1509.729736,496.669312,1514.947144,496.670898C1520.55957,496.672607,1521.439941,496.759796,1524.644287,497.631073C1533.16748,499.948608,1541.076538,505.48819,1546.153198,512.696167C1555.706299,526.26001,1555.483765,544.512268,1545.602173,557.883179C1542.267578,562.395264,1536.874268,566.976929,1532.054688,569.39209C1525.08374,572.885315,1515.880981,574.210938,1508.245239,572.821716zM1488.560059,521.292969C1489.879639,520.415649,1493.296387,518.677551,1496.152588,517.430481C1503.489136,514.227173,1505.261963,512.65979,1505.227783,509.406555C1505.191162,505.911804,1502.813965,504.220154,1499.641968,505.43158C1494.494995,507.397217,1488.189941,513.701416,1484.965332,520.106201C1483.931274,522.159851,1482.495605,525.976746,1482.495605,526.671997C1482.495605,526.722229,1483.320313,525.891357,1484.328125,524.825684C1485.335938,523.76001,1487.240356,522.170288,1488.560059,521.292969z"/>
</svg>
