<?xml version="1.0" encoding="UTF-8" standalone="no"?>
<svg xmlns="http://www.w3.org/2000/svg" xmlns:xlink="http://www.w3.org/1999/xlink" width="62.401mm" height="78.765mm" viewBox="1393.648804 -574.176941 62.401001 78.764740">
    <path transform="matrix(1,0,0,-1,0,0)" style="stroke:none;fill:#500a78;fill-rule:evenodd" d="M1447.86084,574.03363C1444.862793,573.713257,1442.07666,572.905884,1438.871582,571.428711C1436.884399,570.512817,1436.144531,569.95105,1435.426025,568.813049C1434.340942,567.094116,1433.329468,564.605225,1432.416748,561.408386L1431.752075,559.080627L1431.735718,561.549744C1431.721191,563.73175,1432.017456,565.821228,1432.62561,567.826111C1432.822266,568.474365,1428.822266,565.823975,1425.81665,563.314575C1423.202148,561.131714,1421.11377,555.440002,1420.468872,548.739929L1420.208008,546.02948L1419.782227,548.351135C1419.547974,549.628052,1419.356323,552.06189,1419.356323,553.759766C1419.356323,555.511108,1419.214478,556.795776,1419.028442,556.729065C1418.609131,556.578735,1413.012573,550.564331,1410.709961,547.78949C1406.506226,542.723633,1405.467773,539.804993,1405.44043,532.978333C1405.43103,530.650269,1405.54126,527.951904,1405.685547,526.981873C1406.034424,524.634766,1405.50647,525.45752,1404.355591,529.054382C1403.866821,530.582275,1403.365967,533.025635,1403.242676,534.484009C1402.988037,537.497192,1402.859009,537.460815,1401.029785,533.860168C1397.494141,526.900757,1396.742432,519.842468,1398.876465,513.639709L1399.551147,511.678833L1397.460083,507.022064C1394.503906,500.438568,1392.976074,495.412201,1393.931274,495.412201C1394.859009,495.412201,1397.74939,499.450836,1399.025635,502.530396C1404.159302,514.917603,1415.653687,532.804932,1426.411621,545.147644C1430.21106,549.506897,1438.25,557.69989,1441.754883,560.785156C1443.746094,562.537842,1443.411987,562.105225,1440.029419,558.550476C1431.089478,549.155518,1424.157959,540.575562,1416.805908,529.803711C1410.689819,520.842773,1404.021973,509.217987,1404.642456,508.597534C1405.082764,508.157257,1412.438965,509.086914,1414.642212,509.861267C1417.078369,510.717499,1421.807129,513.504761,1423.082886,514.836426L1423.981689,515.774536L1420.698975,515.602905C1417.823486,515.452515,1413.018066,515.999268,1413.446777,516.427979C1413.525391,516.506592,1415.006226,516.814331,1416.737549,517.111816C1420.44165,517.748413,1423.710815,518.76416,1426.431641,520.12384C1428.682129,521.248535,1431.240479,523.862427,1435.378906,529.265137L1438.174072,532.914185L1436.789917,532.683228C1433.907227,532.202209,1429.621826,532.011169,1427.613892,532.27417L1425.529175,532.547241L1429.23291,533.346802C1436.66748,534.951782,1441.444092,537.198792,1443.716187,540.159973C1446.015747,543.156982,1448.985962,547.527954,1448.985962,547.9151C1448.985962,548.142334,1448.308105,548.006653,1447.313477,547.580322C1444.793579,546.500122,1441.686157,545.863525,1438.933105,545.863525L1436.463867,545.863525L1440.623535,547.263184C1447.597656,549.609924,1451.039307,551.964355,1453.028076,555.749084C1455.565063,560.576904,1456.83374,568.669006,1455.539307,571.766968C1454.684204,573.813477,1452.322998,574.510498,1447.86084,574.03363z"/>
</svg>
