<?xml version="1.0" encoding="UTF-8" standalone="no"?>
<svg xmlns="http://www.w3.org/2000/svg" xmlns:xlink="http://www.w3.org/1999/xlink" width="73.220mm" height="79.322mm" viewBox="1205.599731 -574.445435 73.220093 79.322021">
    <path transform="matrix(1,0,0,-1,0,0)" style="stroke:none;fill:#500a78;fill-rule:evenodd" d="M1207.01062,574.176758C1207.01062,574.040527,1207.517944,573.405579,1208.138062,572.765869L1209.265503,571.602661L1208.138062,571.602661C1206.281006,571.602661,1206.794189,570.757507,1209.954834,568.610474C1212.407959,566.944153,1212.873901,566.479004,1212.748169,565.821533C1212.633423,565.22113,1212.976807,564.721558,1214.184326,563.732056C1215.057251,563.016785,1215.932373,562.43158,1216.12915,562.43158C1216.325928,562.43158,1216.588867,562.110352,1216.713501,561.717712C1216.838135,561.325073,1217.733887,560.469238,1218.703979,559.815918C1219.674072,559.162598,1220.274292,558.563599,1220.037842,558.484741C1219.299194,558.238525,1220.254883,556.953552,1221.993774,555.854919C1222.884033,555.29248,1223.588135,554.577454,1223.588501,554.235535C1223.589233,553.553101,1225.729736,552.015259,1227.164307,551.666626C1227.851929,551.499451,1228.049194,551.26947,1227.921997,550.783203C1227.790283,550.279419,1228.175415,549.894531,1229.570801,549.135864C1230.572266,548.59137,1231.818604,547.785522,1232.340454,547.345154C1232.862305,546.904785,1233.88147,546.364685,1234.605225,546.144958C1235.744995,545.799011,1235.893311,545.634216,1235.712769,544.914917C1235.59375,544.440552,1235.727173,543.744202,1236.023926,543.291382C1236.323975,542.833252,1236.475098,542.032715,1236.381592,541.39563C1236.292603,540.789185,1236.393799,540.185425,1236.606445,540.053955C1236.819092,539.922546,1236.993042,539.299133,1236.993042,538.668701C1236.993042,538.038208,1237.226074,537.214233,1237.510864,536.837646C1237.795776,536.46106,1238.033813,535.733398,1238.040039,535.220642C1238.046265,534.698547,1238.300049,534.192871,1238.616943,534.071289C1238.933838,533.949707,1239.095581,533.62738,1238.984619,533.338318C1238.730713,532.676697,1239.657715,531.743774,1240.56897,531.743774C1241.163818,531.743774,1241.01001,531.409363,1239.57373,529.580139C1236.36499,525.493652,1235.134155,524.738159,1221.296387,518.360718C1211.825684,513.995972,1205.599731,510.891113,1205.599731,510.532837C1205.599731,510.190094,1207.932373,510.886536,1213.601318,512.921692C1221.041748,515.592896,1221.012817,515.586243,1224.986206,515.53479C1227.015625,515.508545,1228.74353,515.419434,1228.826172,515.336914C1229.102661,515.060364,1227.38916,511.482697,1226.040894,509.521545C1225.307373,508.454529,1222.93042,505.676758,1220.758789,503.348694C1216.502075,498.785583,1215.210693,497.175873,1215.806763,497.175873C1216.014893,497.175873,1217.414673,498.24176,1218.917236,499.544556C1220.419678,500.847321,1223.315796,503.362183,1225.352783,505.133118C1232.003174,510.914734,1241.017822,518.063782,1242.504028,518.734924C1243.304077,519.09613,1245.548828,519.767517,1247.492432,520.226868L1251.026123,521.062012L1254.380249,519.436401L1257.734253,517.810791L1257.932861,516.223511C1258.187012,514.192017,1258.19104,510.367645,1257.94043,508.958527C1257.806152,508.203552,1257.929443,507.683105,1258.339966,507.272614C1258.744751,506.867828,1258.861328,506.390137,1258.706177,505.771912C1258.484131,504.887451,1258.88269,503.073853,1259.640869,501.517944C1259.8479,501.093048,1259.917603,500.246704,1259.795654,499.637238C1259.545776,498.387787,1260.043335,497.175873,1260.806274,497.175873C1261.204224,497.175873,1261.240601,496.982208,1260.974121,496.281433C1260.531494,495.117096,1261.334595,494.749146,1262.5625,495.553711C1263.818359,496.376587,1266.796875,500.755035,1268.412354,504.153168C1271.76062,511.195801,1274.758301,522.476257,1274.854248,528.393982C1274.906006,531.589722,1273.797607,534.042664,1271.826416,535.094727C1271.099487,535.482727,1270.50415,535.943604,1270.503662,536.118835C1270.503174,536.294128,1271.256714,537.25061,1272.178223,538.244385C1273.099731,539.23822,1274.361084,540.793823,1274.981323,541.701416C1275.601563,542.608948,1276.758301,543.761353,1277.551758,544.262207C1278.345215,544.763123,1278.912598,545.305115,1278.812744,545.466675C1278.712891,545.628235,1278.013428,545.859253,1277.258301,545.97998C1276.503174,546.100708,1275.67688,546.450684,1275.422241,546.757568C1275.16748,547.064514,1274.359619,547.62146,1273.626831,547.9953C1271.125732,549.27124,1267.009033,548.735107,1262.793701,546.584656C1261.967529,546.163208,1261.011719,545.907104,1260.669678,546.015625C1260.098999,546.196838,1258.862549,548.256714,1258.862549,549.026489C1258.862549,550.056396,1257.257446,553.370239,1256.289917,554.337952C1253.552979,557.075256,1247.29895,560.496948,1234.876587,566.053528C1227.606689,569.305359,1220.815918,571.782593,1215.286499,573.199768C1210.899536,574.324097,1207.01062,574.783203,1207.01062,574.176758zM1271.639404,532.481812C1272.723877,531.512939,1272.794312,531.301025,1272.914673,528.650513C1273.067871,525.278381,1272.453857,521.867188,1271.693726,521.867188C1271.396362,521.867188,1270.713989,522.844177,1270.110107,524.134521C1269.526611,525.38147,1268.835938,526.578735,1268.575195,526.795105C1268.314453,527.011475,1267.129883,527.369141,1265.942627,527.589905L1263.783936,527.991333L1266.526001,530.747437C1268.03418,532.263306,1269.543457,533.504395,1269.879883,533.505493C1270.216309,533.506592,1271.008057,533.045898,1271.639404,532.481812zM1246.567017,558.315857C1253.845947,554.250366,1255.269287,552.856384,1256.586182,548.503296C1257.334229,546.030823,1257.806519,545.094055,1258.73291,544.245483C1259.824463,543.245667,1259.921021,542.988037,1259.924194,541.066162C1259.926514,539.617432,1260.182129,538.428345,1260.755737,537.196472C1261.618652,535.343323,1262.627563,534.469971,1264.804199,533.692017L1266.093506,533.23114L1263.800781,530.988342C1258.445068,525.749329,1252.588745,523.146301,1240.961304,520.836548C1238.390747,520.325928,1236.287598,519.943115,1236.287598,519.985901C1236.287598,520.028625,1237.776978,522.334534,1239.597412,525.110046C1242.861328,530.086487,1246.016357,533.628845,1250.114014,536.917358C1251.025391,537.648804,1251.714111,538.304199,1251.644653,538.373779C1251.575073,538.443359,1250.291992,538.156189,1248.793457,537.735718C1245.882324,536.918823,1245.476074,537.028748,1245.463989,538.636108C1245.454102,539.967224,1246.530762,543.487183,1247.554932,545.47168C1249.208496,548.675659,1249.174438,549.175903,1247.175415,551.045715C1246.189209,551.968201,1244.98938,553.598145,1244.369385,554.857483C1243.234497,557.162781,1242.624878,559.962463,1243.25769,559.962463C1243.456299,559.962463,1244.945557,559.221497,1246.567017,558.315857z"/>
</svg>
