<?xml version="1.0" encoding="UTF-8" standalone="no"?>
<svg xmlns="http://www.w3.org/2000/svg" xmlns:xlink="http://www.w3.org/1999/xlink" width="73.794mm" height="60.202mm" viewBox="1298.368652 -563.384338 73.794434 60.201660">
    <path transform="matrix(1,0,0,-1,0,0)" style="stroke:none;fill:#500a78;fill-rule:evenodd" d="M1349.515137,562.905151C1347.294678,562.101501,1344.441162,560.151855,1342.970337,558.433472C1341.716553,556.968872,1339.606567,553.444763,1338.951172,551.720886L1338.597778,550.791382L1340.898193,550.791382C1343.119385,550.791382,1343.21936,550.829834,1343.799561,551.908264C1344.959473,554.064087,1347.924805,557.259644,1349.50293,558.054199C1353.375732,560.004089,1356.689087,559.382813,1360.266846,556.036011L1362.560059,553.890869L1361.16394,552.30481C1359.526978,550.445129,1358.495117,547.9104,1358.176025,544.965088C1357.202148,535.97583,1356.603271,533.602661,1354.227173,529.32019C1352.202026,525.669922,1347.619507,521.323608,1343.661255,519.298706C1338.209351,516.509766,1334.550659,515.495422,1326.763794,514.614136L1324.647339,514.374634L1326.234619,513.858704C1327.131348,513.567261,1329.901489,513.260132,1332.60144,513.152832C1336.724487,512.989014,1337.788574,513.06604,1340.348999,513.713501C1352.551147,516.799194,1360.868286,526.898438,1362.024292,540.03302C1362.585938,546.414917,1363.674805,549.635559,1365.823853,551.271484C1366.457153,551.753601,1368.142578,552.706787,1369.569214,553.389771L1372.163086,554.63147L1370.980103,555.124878C1370.32959,555.39624,1369.162354,555.823303,1368.386353,556.073853C1366.160645,556.792542,1365.353394,557.3078,1363.12793,559.43042C1360.038452,562.377014,1358.149902,563.215637,1354.276978,563.360718C1351.97937,563.446838,1350.663818,563.320984,1349.515137,562.905151z"/>
    <path transform="matrix(1,0,0,-1,0,0)" style="stroke:none;fill:#500a78;fill-rule:evenodd" d="M1335.582031,546.245483C1332.622559,544.82196,1330.06543,542.028503,1316.005371,524.859375C1313.968262,522.371887,1309.166748,516.596802,1305.335205,512.025818C1301.503662,507.454834,1298.368652,503.592865,1298.368652,503.443665C1298.368652,503.045502,1300.796631,503.116699,1302.425171,503.562622C1304.098755,504.020844,1306.947266,506.806152,1312.397217,513.313416C1315.861938,517.450195,1316.073486,517.634399,1317.360107,517.634399C1319.56665,517.634399,1326.280518,518.96582,1329.686768,520.078979C1343.003418,524.430664,1350.680176,533.558411,1347.895996,541.729736C1347.517822,542.839417,1346.782593,543.872498,1345.63916,544.900513C1342.717041,547.52771,1339.220093,547.995361,1335.582031,546.245483zM1342.52771,541.912476C1343.659912,541.121399,1343.995728,540.228577,1343.972412,538.072632C1343.927368,533.932373,1339.256958,529.046692,1332.28833,525.850098C1329.603638,524.618652,1322.370972,522.572693,1320.702148,522.572693C1319.842163,522.572693,1319.847778,522.592712,1321.129639,524.071777C1321.844238,524.896301,1325.084717,528.745544,1328.330811,532.62561C1334.73938,540.285828,1336.626465,542.191895,1338.130493,542.524048C1338.668945,542.642944,1339.268188,542.789246,1339.462158,542.849121C1340.086548,543.04187,1341.552246,542.593994,1342.52771,541.912476z"/>
</svg>
