<svg xmlns="http://www.w3.org/2000/svg" viewBox="0 0 1200 1200" role="img" aria-label="Porträt Vorlage">
  <defs>
    <linearGradient id="bg" x1="0" y1="0" x2="1" y2="1">
      <stop offset="0" stop-color="#f3f5f8"/>
      <stop offset="1" stop-color="#d6dce3"/>
    </linearGradient>
  </defs>
  <rect width="1200" height="1200" fill="url(#bg)"/>
  <rect x="54" y="54" width="1092" height="1092" rx="160" fill="none" stroke="#c5ccd4" stroke-width="20"/>
  <g fill="#1f2730">
    <path d="M418 868c30-80 90-112 145-132-58-34-97-96-97-170 0-124 78-208 192-208 87 0 162 54 162 148 0 60-27 102-72 130 16 26 24 58 24 92 0 60-24 108-72 140H418Z"/>
    <path d="M388 910h372c36 0 66 27 72 64H316c15-37 36-64 72-64Z" fill="#3d4855"/>
  </g>
</svg>
