<?xml version="1.0" encoding="UTF-8"?>
<svg xmlns="http://www.w3.org/2000/svg" viewBox="49 53 301 295">
  <path fill="#000000" fill-rule="evenodd" d="M 201.00 342.50 L 183.00 340.50 L 163.00 335.50 L 164.00 337.50 L 181.50 341.00 L 175.00 342.50 L 167.00 339.50 L 163.00 340.50 L 162.00 338.50 L 144.00 330.50 L 139.00 328.50 L 137.00 330.50 L 133.00 328.50 L 133.00 325.50 L 109.00 310.50 L 108.50 308.00 L 88.50 290.00 L 81.50 281.00 L 82.50 280.00 L 76.50 270.00 L 68.50 263.00 L 69.50 261.00 L 68.00 261.50 L 66.50 259.00 L 67.50 258.00 L 57.50 232.00 L 55.50 182.00 L 58.50 164.00 L 61.00 158.50 L 61.50 165.00 L 63.50 159.00 L 63.50 149.00 L 67.50 137.00 L 85.50 110.00 L 85.50 107.00 L 98.50 94.00 L 99.00 91.50 L 126.00 73.50 L 128.50 71.00 L 127.00 69.50 L 136.00 64.50 L 138.50 65.00 L 136.50 66.00 L 138.00 66.50 L 165.00 58.50 L 169.50 59.00 L 167.00 60.50 L 211.00 60.50 L 206.50 62.00 L 237.00 66.50 L 253.00 73.50 L 256.00 73.50 L 258.00 69.50 L 270.00 76.50 L 283.50 91.00 L 284.50 96.00 L 293.50 106.00 L 296.00 108.50 L 296.00 105.50 L 307.50 119.00 L 316.50 126.00 L 318.50 131.00 L 321.50 132.00 L 329.50 151.00 L 335.50 159.00 L 338.50 168.00 L 338.00 170.50 L 336.50 169.00 L 337.50 178.00 L 341.50 183.00 L 340.00 188.50 L 334.50 174.00 L 332.50 174.00 L 332.50 170.00 L 331.00 175.50 L 327.50 171.00 L 329.50 168.00 L 323.50 150.00 L 316.50 137.00 L 309.50 131.00 L 308.50 129.00 L 310.50 127.00 L 304.50 119.00 L 302.50 119.00 L 308.00 126.50 L 288.00 102.50 L 256.50 82.00 L 261.00 83.50 L 261.00 81.50 L 245.00 72.50 L 224.00 65.50 L 222.50 67.00 L 224.00 68.50 L 238.50 74.00 L 234.00 74.50 L 233.00 72.50 L 225.50 74.00 L 231.00 75.50 L 233.00 80.50 L 235.00 79.50 L 254.00 90.50 L 272.00 106.50 L 287.50 122.00 L 290.50 127.00 L 286.50 125.00 L 295.00 136.50 L 290.50 129.00 L 294.50 131.00 L 303.50 149.00 L 311.50 175.00 L 313.50 196.00 L 314.50 199.00 L 316.50 199.00 L 315.50 204.00 L 317.50 203.00 L 317.50 210.00 L 315.50 210.00 L 308.50 237.00 L 298.50 256.00 L 287.50 270.00 L 288.50 273.00 L 278.00 283.50 L 276.00 280.50 L 272.00 283.50 L 267.50 288.00 L 269.50 289.00 L 261.00 294.50 L 259.50 294.00 L 265.00 288.50 L 249.00 301.50 L 245.00 300.50 L 242.00 302.50 L 240.00 300.50 L 234.00 300.50 L 220.00 304.50 L 215.50 303.00 L 222.00 300.50 L 212.00 302.50 L 213.00 304.50 L 193.00 304.50 L 192.00 302.50 L 188.00 301.50 L 184.00 302.50 L 177.00 299.50 L 172.00 300.50 L 154.00 293.50 L 145.50 287.00 L 149.00 287.50 L 148.00 285.50 L 162.00 282.50 L 175.00 281.50 L 185.00 281.50 L 190.00 284.50 L 193.50 282.00 L 191.50 280.00 L 191.00 270.50 L 186.00 274.50 L 183.00 273.50 L 180.50 275.00 L 180.50 279.00 L 183.00 280.50 L 135.00 284.50 L 130.50 279.00 L 130.50 265.00 L 160.00 273.50 L 176.00 273.50 L 178.50 272.00 L 178.50 269.00 L 176.50 269.00 L 178.50 267.00 L 178.50 257.00 L 175.50 238.00 L 171.50 226.00 L 171.50 200.00 L 164.50 193.00 L 164.50 191.00 L 171.00 185.50 L 183.00 185.50 L 188.50 183.00 L 169.00 183.50 L 168.00 185.50 L 161.00 183.50 L 136.00 183.50 L 132.00 185.50 L 111.00 186.50 L 112.00 188.50 L 121.00 187.50 L 140.50 191.00 L 135.50 198.00 L 134.50 220.00 L 136.50 230.00 L 134.50 231.00 L 134.00 227.50 L 132.50 233.00 L 129.00 231.50 L 127.50 235.00 L 128.50 223.00 L 130.50 222.00 L 131.50 216.00 L 129.50 216.00 L 126.50 202.00 L 121.00 194.50 L 111.00 189.50 L 107.00 189.50 L 104.50 187.00 L 104.50 178.00 L 107.00 174.50 L 127.00 173.50 L 128.50 172.00 L 128.50 165.00 L 126.50 161.00 L 130.00 162.50 L 131.50 161.00 L 130.50 148.00 L 132.50 146.00 L 132.50 121.00 L 129.50 120.00 L 126.00 108.50 L 128.50 119.00 L 127.00 121.50 L 122.50 122.00 L 121.50 109.00 L 123.00 113.50 L 123.50 108.00 L 121.50 101.00 L 124.00 98.50 L 151.00 98.50 L 168.50 101.00 L 167.50 105.00 L 169.50 105.00 L 169.50 109.00 L 167.50 116.00 L 169.50 118.00 L 168.00 120.50 L 165.50 119.00 L 165.00 124.50 L 164.50 121.00 L 162.50 120.00 L 162.50 156.00 L 164.50 166.00 L 163.50 170.00 L 165.50 173.00 L 164.00 174.50 L 177.00 175.50 L 173.50 172.00 L 175.00 169.50 L 185.00 166.50 L 200.00 165.50 L 205.00 161.50 L 206.00 163.50 L 222.00 163.50 L 243.00 168.50 L 245.00 172.50 L 249.50 174.00 L 248.00 175.50 L 253.50 178.00 L 252.50 181.00 L 255.50 184.00 L 254.50 187.00 L 256.50 186.00 L 255.50 198.00 L 257.00 195.50 L 257.50 199.00 L 252.50 207.00 L 243.00 215.50 L 240.00 214.50 L 235.00 216.50 L 236.00 218.50 L 221.00 218.50 L 219.50 220.00 L 240.00 223.50 L 247.00 227.50 L 255.50 236.00 L 258.50 247.00 L 258.50 260.00 L 253.00 262.50 L 252.00 260.50 L 244.00 267.50 L 223.00 266.50 L 225.50 268.00 L 211.00 268.50 L 215.50 271.00 L 204.00 270.50 L 198.00 274.50 L 196.50 274.00 L 197.00 271.50 L 195.50 276.00 L 197.50 285.00 L 202.00 281.50 L 203.50 284.00 L 199.50 286.00 L 201.00 287.50 L 196.00 285.50 L 191.50 287.00 L 197.00 288.50 L 207.00 288.50 L 232.00 283.50 L 234.50 285.00 L 233.00 286.50 L 236.00 286.50 L 247.00 282.50 L 274.00 261.50 L 285.50 246.00 L 283.50 244.00 L 286.50 237.00 L 289.50 235.00 L 288.50 232.00 L 290.50 231.00 L 289.50 224.00 L 291.50 223.00 L 289.50 221.00 L 289.50 215.00 L 292.50 211.00 L 289.50 208.00 L 291.50 206.00 L 291.50 199.00 L 286.50 189.00 L 285.50 173.00 L 281.50 169.00 L 283.50 166.00 L 279.50 164.00 L 280.50 159.00 L 277.50 155.00 L 278.50 151.00 L 269.50 135.00 L 271.00 131.50 L 273.50 133.00 L 273.00 129.50 L 275.50 131.00 L 274.50 126.00 L 269.50 116.00 L 263.50 109.00 L 264.50 108.00 L 260.50 104.00 L 261.50 101.00 L 258.00 97.50 L 237.00 84.50 L 236.00 86.50 L 229.00 83.50 L 232.50 86.00 L 230.00 86.50 L 203.00 77.50 L 173.00 79.50 L 161.00 83.50 L 153.00 82.50 L 153.00 80.50 L 140.50 82.00 L 143.00 79.50 L 153.00 76.50 L 139.00 79.50 L 135.00 78.50 L 112.00 92.50 L 97.50 106.00 L 86.50 122.00 L 87.50 124.00 L 85.00 128.50 L 90.00 122.50 L 91.50 123.00 L 86.50 129.00 L 86.50 133.00 L 83.50 134.00 L 82.50 138.00 L 76.50 144.00 L 77.50 146.00 L 75.50 146.00 L 76.50 147.00 L 71.50 157.00 L 69.50 157.00 L 69.50 164.00 L 67.50 163.00 L 69.50 170.00 L 66.50 193.00 L 69.50 228.00 L 75.50 245.00 L 81.50 257.00 L 87.00 263.50 L 83.50 257.00 L 86.50 256.00 L 79.50 239.00 L 80.50 237.00 L 85.50 250.00 L 87.50 250.00 L 86.50 253.00 L 88.50 253.00 L 87.50 255.00 L 89.50 255.00 L 93.50 265.00 L 90.00 260.50 L 89.50 263.00 L 94.50 269.00 L 97.50 277.00 L 116.00 294.50 L 136.00 309.50 L 133.00 304.50 L 137.00 307.50 L 138.00 305.50 L 153.00 312.50 L 151.50 314.00 L 153.50 317.00 L 158.50 320.00 L 154.50 320.00 L 159.50 323.00 L 153.50 322.00 L 161.00 326.50 L 167.00 328.50 L 171.00 327.50 L 170.00 329.50 L 174.00 328.50 L 187.00 331.50 L 208.00 332.50 L 197.00 331.50 L 204.50 330.00 L 196.50 328.00 L 219.00 328.50 L 215.50 327.00 L 221.00 324.50 L 238.00 322.50 L 236.50 324.00 L 238.50 325.00 L 236.00 326.50 L 222.50 329.00 L 233.00 328.50 L 231.50 330.00 L 233.00 330.50 L 259.00 323.50 L 274.00 315.50 L 277.00 315.50 L 290.00 305.50 L 291.00 307.50 L 293.00 306.50 L 315.50 284.00 L 313.00 284.50 L 312.50 283.00 L 322.50 269.00 L 332.50 248.00 L 331.50 246.00 L 337.50 227.00 L 339.50 210.00 L 341.00 207.50 L 342.50 208.00 L 340.50 225.00 L 334.50 246.00 L 335.00 247.50 L 336.00 245.50 L 336.50 248.00 L 332.50 254.00 L 328.50 266.00 L 319.50 280.00 L 325.50 274.00 L 330.00 265.50 L 331.50 267.00 L 327.00 275.50 L 333.00 266.50 L 333.50 268.00 L 328.50 277.00 L 325.00 277.50 L 325.50 280.00 L 321.50 282.00 L 322.50 284.00 L 320.50 284.00 L 321.50 285.00 L 316.50 292.00 L 314.00 291.50 L 310.50 295.00 L 312.50 296.00 L 303.50 303.00 L 303.50 306.00 L 301.00 308.50 L 282.00 322.50 L 268.00 328.50 L 261.00 335.50 L 255.00 335.50 L 252.00 337.50 L 249.50 336.00 L 256.00 334.50 L 259.00 331.50 L 231.00 339.50 L 219.00 341.50 L 208.00 340.50 Z M 191.50 213.00 L 192.00 211.50 L 195.00 212.50 L 212.00 209.50 L 223.00 204.50 L 230.50 197.00 L 231.50 189.00 L 229.50 185.00 L 221.00 178.50 L 217.00 178.50 L 218.00 176.50 L 200.00 176.50 L 198.50 179.00 L 199.50 184.00 L 193.00 186.50 L 189.00 192.50 L 187.50 190.00 L 189.50 213.00 Z M 236.50 236.00 L 235.50 232.00 L 237.00 231.50 L 241.00 235.50 L 242.50 234.00 L 240.50 233.00 L 243.50 230.00 L 241.50 229.00 L 243.50 228.00 L 234.00 224.50 L 228.00 224.50 L 228.50 227.00 L 224.50 229.00 L 227.50 231.00 L 225.50 232.00 L 228.00 231.50 L 230.00 234.50 L 230.00 232.50 L 233.00 232.50 Z M 196.50 266.00 L 197.00 264.50 L 205.00 265.50 L 222.00 258.50 L 225.50 253.00 L 223.50 248.00 L 225.00 245.50 L 228.50 252.00 L 226.50 242.00 L 218.00 236.50 L 204.00 234.50 L 195.00 234.50 L 193.00 239.50 L 192.50 235.00 L 191.00 234.50 L 192.50 255.00 L 194.00 244.50 L 195.50 257.00 L 193.50 257.00 L 194.50 264.00 Z M 137.50 312.00 L 115.00 296.50 L 95.00 275.50 L 92.50 277.00 L 101.00 289.50 L 126.00 305.50 L 127.00 308.50 Z"/>
</svg>
