<?xml version="1.0" encoding="UTF-8" standalone="no"?>
<svg xmlns="http://www.w3.org/2000/svg" xmlns:xlink="http://www.w3.org/1999/xlink" width="77.405mm" height="70.200mm" viewBox="1194.605835 -918.300781 77.405396 70.200439">
    <path transform="matrix(1,0,0,-1,0,0)" style="stroke:none;fill:#500a78;fill-rule:evenodd" d="M1216.651733,917.709839C1214.976685,916.824829,1214.348755,916.138794,1213.314941,914.064453C1211.969238,911.364197,1211.497925,909.161499,1211.50354,905.600037C1211.509033,902.151001,1211.853027,900.300659,1213.109253,896.963257C1215.140747,891.565918,1219.122925,887.962158,1223.055298,887.962158C1225.932129,887.962158,1228.911621,890.916077,1230.126831,894.973083C1230.849121,897.384399,1230.921875,902.829102,1230.268677,905.598816C1229.562988,908.591431,1226.961182,913.688232,1225.276611,915.377808C1222.561157,918.101563,1219.142456,919.02594,1216.651733,917.709839z"/>
    <path transform="matrix(1,0,0,-1,0,0)" style="stroke:none;fill:#500a78;fill-rule:evenodd" d="M1244.068115,917.550354C1240.992676,916.028015,1237.821655,911.330627,1236.57251,906.446777C1235.739624,903.190063,1235.648071,897.843323,1236.378418,895.100037C1238.218872,888.186157,1243.930908,885.90979,1248.764038,890.164124C1252.246826,893.229858,1254.210205,897.504639,1254.963379,903.662354C1255.739014,910.003174,1253.255127,916.51123,1249.52124,917.922058C1247.952637,918.514648,1245.707031,918.361572,1244.068115,917.550354zM1242.568115,909.471069C1242.950195,909.308594,1243.431519,908.949829,1243.805542,908.548584C1244.505127,907.798096,1245.171631,906.642334,1245.667358,905.320251C1245.711548,905.202393,1245.736206,905.164429,1245.778931,905.14856C1245.880249,905.110962,1245.949829,905.140747,1246.113892,905.291931C1246.597534,905.737305,1247.217773,906.196838,1247.867432,906.590881C1248.401367,906.914795,1248.702637,907.064148,1249.144531,907.224121C1249.460327,907.338379,1249.946655,907.451782,1250.211304,907.472717C1251.287354,907.557983,1252.131836,907.119263,1252.706055,906.176636C1252.998047,905.697083,1253.126953,905.224121,1253.113525,904.681091C1253.107178,904.429077,1252.949585,903.785828,1252.827515,903.51416C1252.169067,902.049255,1250.568604,900.469543,1248.029419,898.778442C1246.919922,898.03949,1245.173584,897.03717,1244.075317,896.508972L1243.679199,896.318481L1243.482422,896.587891C1242.438232,898.017944,1241.230713,899.968384,1240.507935,901.392578C1239.845703,902.697205,1239.356079,903.946106,1239.109253,904.960083C1238.757324,906.405945,1238.815552,907.514709,1239.286255,908.331482C1239.40686,908.540649,1239.599854,908.779663,1239.786743,908.950928C1239.997925,909.144653,1240.453735,909.412231,1240.755371,909.519653C1241.404419,909.750854,1241.943848,909.73645,1242.568115,909.471069z"/>
    <path transform="matrix(1,0,0,-1,0,0)" style="stroke:none;fill:#500a78;fill-rule:evenodd" d="M1263.838379,896.400146C1259.359009,895.542358,1254.608887,890.53772,1252.603394,884.563477C1251.849365,882.317505,1251.705444,881.329773,1251.815674,879.15686C1252.055298,874.427979,1253.9552,872.078857,1257.762695,871.803406C1263.824219,871.36499,1270.530762,878.441162,1271.843872,886.660522C1272.856567,892.999756,1269.21521,897.429871,1263.838379,896.400146z"/>
    <path transform="matrix(1,0,0,-1,0,0)" style="stroke:none;fill:#500a78;fill-rule:evenodd" d="M1197.956909,895.771484C1195.551025,894.2854,1194.605835,892.253174,1194.605835,888.566589C1194.605835,883.082153,1197.587524,877.423462,1202.290405,873.982422C1204.643677,872.260498,1205.919678,871.796875,1208.397705,871.763184C1210.054199,871.740723,1210.6073,871.906067,1211.824219,872.787598C1213.748291,874.181396,1214.438965,875.625183,1214.63623,878.666016C1214.941406,883.370361,1213.005127,888.417969,1209.488159,892.085815C1205.810181,895.921753,1200.795166,897.524658,1197.956909,895.771484z"/>
    <path transform="matrix(1,0,0,-1,0,0)" style="stroke:none;fill:#500a78;fill-rule:evenodd" d="M1229.785645,884.75647C1226.245117,883.922363,1223.77124,881.632263,1221.408691,877.00177C1220.069946,874.378174,1219.280273,873.42865,1214.682373,868.91449C1208.941406,863.278076,1208.015625,861.885986,1207.742188,858.479431C1207.385254,854.033813,1209.672363,850.297546,1213.664429,848.804626C1216.897827,847.595398,1220.27063,847.910828,1226.394043,849.995239C1232.781738,852.169617,1233.661011,852.159912,1240.583984,849.838257C1245.723999,848.114624,1246.050171,848.051331,1249.103271,848.185669C1252.744141,848.345886,1254.486084,849.050415,1256.272949,851.085449C1258.246338,853.333069,1258.613281,854.355652,1258.620483,857.627014C1258.630371,862.130188,1257.469727,864.048706,1251.689941,869.082947C1248.11731,872.194824,1247.07251,873.491089,1244.860596,877.556519C1243.064575,880.8573,1242.116821,882.062744,1240.450195,883.165649C1237.854858,884.883179,1233.243286,885.571045,1229.785645,884.75647z"/>
</svg>
