<?xml version="1.0" encoding="UTF-8" standalone="no"?>
<svg xmlns="http://www.w3.org/2000/svg" xmlns:xlink="http://www.w3.org/1999/xlink" width="73.580mm" height="71.900mm" viewBox="1469.465820 -918.960571 73.579590 71.899841">
    <path transform="matrix(1,0,0,-1,0,0)" style="stroke:none;fill:#500a78;fill-rule:evenodd" d="M1492.21521,918.16272C1490.841309,916.889404,1490.188599,915.324036,1489.950684,912.73175C1489.795654,911.04071,1489.499268,910.051758,1488.917725,909.283569C1486.833496,906.530701,1486.095703,902.587952,1486.823486,898.091919C1487.657349,892.940918,1489.669678,889.483887,1492.974854,887.524109C1495.710571,885.901978,1498.547729,886.421448,1501.160645,889.022949C1504.920654,892.766663,1505.256836,900.11438,1501.974854,906.817322C1500.773315,909.271118,1498.166138,911.769531,1496.275879,912.278503C1494.346191,912.798096,1494.009766,913.331177,1493.804932,916.194824C1493.70752,917.554932,1493.510742,918.740112,1493.367676,918.828613C1493.224487,918.917114,1492.705811,918.617432,1492.21521,918.16272z"/>
    <path transform="matrix(1,0,0,-1,0,0)" style="stroke:none;fill:#500a78;fill-rule:evenodd" d="M1522.509521,918.444763C1522.391846,918.137878,1522.28833,917.383911,1522.279541,916.769287C1522.270752,916.154663,1522.065796,915.18811,1521.823975,914.62146C1521.444214,913.731628,1521.087158,913.530579,1519.205078,913.146729C1515.453491,912.381409,1512.760742,909.993164,1510.673462,905.579468C1507.885132,899.683533,1508.490845,892.821533,1512.086426,889.57312C1514.894653,887.036072,1518.118286,887.021545,1521.526611,889.530579C1523.77832,891.188171,1524.555298,892.130432,1525.90564,894.840454C1527.941162,898.925598,1528.288696,904.942871,1526.713135,908.820313C1526.144409,910.219849,1525.822754,911.694458,1525.822754,912.901978C1525.822754,914.988342,1525.130859,916.980042,1523.980835,918.204224C1523.09375,919.148438,1522.798096,919.196777,1522.509521,918.444763z"/>
    <path transform="matrix(1,0,0,-1,0,0)" style="stroke:none;fill:#500a78;fill-rule:evenodd" d="M1539.578979,898.432251C1538.072266,894.395691,1538.276855,894.587402,1534.993896,894.138977C1528.184814,893.208923,1522.333252,881.765137,1525.496338,875.56488C1526.855103,872.901489,1530.701904,871.453125,1533.79895,872.438782C1538.681396,873.992798,1542.31958,878.674377,1542.974365,884.245728C1543.148926,885.731323,1543.019775,886.705872,1542.395874,888.608887C1541.693726,890.750488,1541.643555,891.261597,1541.996948,892.6651C1542.569824,894.940674,1542.503418,895.993958,1541.679688,897.695801C1540.737305,899.642334,1540.112549,899.861328,1539.578979,898.432251z"/>
    <path transform="matrix(1,0,0,-1,0,0)" style="stroke:none;fill:#500a78;fill-rule:evenodd" d="M1470.478516,897.273804C1469.437256,895.950012,1469.195068,894.107483,1469.765259,891.845947C1470.051025,890.712646,1470.222412,888.521973,1470.176392,886.59198C1470.042603,880.981812,1471.437012,876.811157,1474.564209,873.468018C1476.647217,871.241028,1478.79895,870.207336,1481.34668,870.209717C1486.492676,870.214478,1489.554565,874.991211,1488.439209,881.274353C1486.987671,889.450134,1480.168335,895.626831,1474.832886,893.598267C1473.526611,893.101685,1473.009644,893.620789,1472.312134,896.129517C1471.996826,897.26355,1471.617676,898.191406,1471.469604,898.191406C1471.321533,898.191406,1470.875488,897.778503,1470.478516,897.273804z"/>
    <path transform="matrix(1,0,0,-1,0,0)" style="stroke:none;fill:#500a78;fill-rule:evenodd" d="M1504.937744,880.855835C1502.786743,880.565186,1500.419312,879.538696,1499.066895,878.310303C1498.610352,877.895752,1497.542114,876.356018,1496.692993,874.888794C1494.860596,871.722046,1493.411255,870.204041,1489.807495,867.677124C1482.407715,862.488403,1480.799927,856.161865,1485.539795,850.884521C1487.568848,848.625427,1490.324219,847.335754,1493.575684,847.123169C1496.269531,846.947083,1498.457275,847.418945,1502.542358,849.057251C1506.206665,850.526733,1509.0448,850.405945,1514.596069,848.544128C1520.938477,846.417053,1523.937744,846.547607,1526.895874,849.07959C1529.632568,851.42218,1530.606812,854.844971,1529.560791,858.443115C1528.654541,861.560669,1526.664063,864.638306,1522.787476,868.916382C1521.643799,870.178467,1520.167969,872.083252,1519.507568,873.149231C1517.036133,877.139038,1516.436035,877.881714,1514.888062,878.867188C1512.161377,880.603027,1508.492188,881.336304,1504.937744,880.855835z"/>
</svg>
