<?xml version="1.0" encoding="UTF-8" standalone="no"?>
<svg xmlns="http://www.w3.org/2000/svg" xmlns:xlink="http://www.w3.org/1999/xlink" width="67.176mm" height="71.338mm" viewBox="1290.081055 -918.945679 67.176270 71.338013">
    <path transform="matrix(1,0,0,-1,0,0)" style="stroke:none;fill:#500a78;fill-rule:evenodd" d="M1310.193604,918.281616C1307.724854,916.943909,1305.373535,912.673584,1304.643311,908.201111C1303.469238,901.010803,1306.605713,891.97168,1311.063843,889.697266L1312.549927,888.939148L1311.585693,890.085083C1310.17749,891.758667,1309.289185,893.67041,1308.51709,896.689087C1306.669434,903.91333,1309.211182,912.653503,1313.159668,912.653503C1315.466675,912.653503,1318.201294,908.635803,1319.321533,903.600586C1320.025879,900.434448,1319.865479,894.994141,1318.998047,892.635864C1318.18103,890.41449,1318.656372,890.818726,1319.843018,893.35437C1321.287476,896.441284,1321.700562,899.071289,1321.489014,903.835144C1321.27478,908.659302,1320.457886,911.567017,1318.439697,914.689514C1316.03772,918.405884,1312.925293,919.761719,1310.193604,918.281616z"/>
    <path transform="matrix(1,0,0,-1,0,0)" style="stroke:none;fill:#500a78;fill-rule:evenodd" d="M1332.99292,918.488281C1331.34436,917.771179,1329.279907,915.474426,1328.008423,912.942871C1325.180176,907.311707,1325.070313,898.213928,1327.766235,892.893677C1328.856689,890.741638,1329.157837,890.62085,1328.408936,892.635864C1327.547363,894.954102,1327.377319,901.376648,1328.103882,904.159668C1328.833252,906.953735,1330.358765,910.031799,1331.754517,911.52594C1332.575195,912.40448,1333.098389,912.653503,1334.123779,912.653503C1336.585449,912.653503,1338.250122,910.015015,1339.227051,904.564514C1340.097778,899.706909,1338.447998,893.171997,1335.592163,890.166748C1334.247437,888.751648,1334.771729,888.680542,1336.62915,890.026001C1340.851318,893.084656,1342.976318,898.576538,1342.654419,905.598816C1342.365112,911.913025,1340.307983,916.603333,1337.123779,918.209045C1335.319214,919.119019,1334.560791,919.170288,1332.99292,918.488281z"/>
    <path transform="matrix(1,0,0,-1,0,0)" style="stroke:none;fill:#500a78;fill-rule:evenodd" d="M1293.861084,897.519531C1291.363037,895.996277,1290.104126,892.989319,1290.081055,888.491211C1290.040161,880.55188,1294.498047,873.669373,1300.129028,872.977966L1301.660522,872.789917L1300.532349,873.314941C1296.993408,874.961792,1294.007568,880.688721,1293.933228,885.972107C1293.870972,890.393677,1295.153076,892.900391,1297.476563,892.900391C1299.166016,892.900391,1300.418579,892.170044,1302.280029,890.099609C1304.426025,887.712769,1305.766357,884.348389,1305.990234,880.786621C1306.218384,877.158264,1306.762695,877.991333,1306.769775,881.979736C1306.779053,887.146484,1304.968384,892.017578,1301.806152,895.333069C1299.095703,898.174683,1296.229248,898.963562,1293.861084,897.519531z"/>
    <path transform="matrix(1,0,0,-1,0,0)" style="stroke:none;fill:#500a78;fill-rule:evenodd" d="M1348.221436,897.607056C1343.388672,895.067322,1339.76123,886.875061,1340.592773,880.378357L1340.818481,878.614685L1341.265747,881.436523C1342.246826,887.626648,1346.046021,892.900391,1349.524292,892.900391C1351.756836,892.900391,1353.33606,890.232239,1353.33606,886.460266C1353.33606,881.04126,1350.664673,875.609314,1347.034424,873.646545L1345.399536,872.762695L1346.964478,872.969727C1350.456421,873.431641,1353.282959,875.824707,1355.238037,879.974487C1356.735718,883.153503,1357.266846,885.364258,1357.257324,888.379395C1357.244263,892.524658,1355.775146,896.163818,1353.572754,897.506714C1352.210083,898.337646,1349.70105,898.384644,1348.221436,897.607056z"/>
    <path transform="matrix(1,0,0,-1,0,0)" style="stroke:none;fill:#500a78;fill-rule:evenodd" d="M1319.690674,887.031189C1316.89917,886.174072,1314.730225,883.694458,1312.152832,878.413513C1310.097534,874.202393,1309.7854,873.772888,1305.943115,869.869629C1300.794189,864.638794,1299.90686,862.995178,1299.905029,858.685242C1299.904053,856.307434,1300.070923,855.322021,1300.711426,853.92334C1302.442749,850.142334,1305.948486,847.75708,1309.773438,847.757751C1312.130371,847.758179,1313.960327,848.243591,1317.357178,849.76947C1322.709839,852.173889,1325.281372,852.196228,1330.240601,849.881348C1331.981934,849.068542,1334.265015,848.179382,1335.314209,847.905396C1341.487061,846.293579,1347.382446,851.425049,1347.481201,858.495789C1347.534668,862.316711,1346.425781,864.242188,1341.280518,869.262939C1338.69458,871.786255,1336.712402,874.058228,1336.044922,875.263733L1334.970703,877.203735L1335.203613,875.792847C1335.580688,873.508911,1337.042358,870.357788,1339.212402,867.150879C1342.199829,862.735718,1342.754028,861.493958,1342.754028,859.214355C1342.754028,855.321716,1340.136719,852.33606,1336.724365,852.33606C1336.149414,852.33606,1334.233887,852.812195,1332.467773,853.394226C1328.827148,854.593994,1325.760986,854.772705,1323.358643,853.92511C1322.536621,853.635071,1320.360107,852.500305,1318.521729,851.40332C1315.327148,849.497009,1315.067871,849.407349,1312.652832,849.373352C1310.570068,849.344055,1309.85022,849.492676,1308.555298,850.219604C1304.328125,852.592712,1302.92627,858.088806,1305.175415,863.471558C1305.449951,864.128662,1307.231689,866.307434,1309.134888,868.313232C1311.466919,870.770935,1313.226563,873.040771,1314.531128,875.273865C1317.411743,880.204651,1318.733765,881.717163,1321.27124,882.985107C1325.196045,884.946411,1329.209106,884.390137,1332.484863,881.430603C1334.291504,879.798462,1334.331055,880.219116,1332.604248,882.699097C1331.159058,884.774536,1328.646118,886.674316,1326.59082,887.245178C1324.772827,887.750122,1321.724121,887.655579,1319.690674,887.031189z"/>
</svg>
