<?xml version="1.0" encoding="UTF-8" standalone="no"?>
<svg xmlns="http://www.w3.org/2000/svg" xmlns:xlink="http://www.w3.org/1999/xlink" width="73.812mm" height="66.993mm" viewBox="1375.246582 -916.516418 73.812012 66.993408">
    <path transform="matrix(1,0,0,-1,0,0)" style="stroke:none;fill:#500a78;fill-rule:evenodd" d="M1396.54126,915.875C1395.018433,915.183167,1393.769409,913.757813,1392.496826,911.259583C1391.48877,909.280396,1391.148926,904.803528,1391.767944,901.657104C1393.238525,894.182739,1399.403809,889.727173,1404.389404,892.535828C1411.507935,896.546021,1410.037598,912.050781,1402.192139,915.704163C1400.073975,916.690552,1398.444946,916.739807,1396.54126,915.875z"/>
    <path transform="matrix(1,0,0,-1,0,0)" style="stroke:none;fill:#500a78;fill-rule:evenodd" d="M1422.597168,916.023315C1421.049683,915.349976,1418.711426,913.160461,1417.711304,911.448425C1417.248535,910.656189,1416.522949,908.739746,1416.098877,907.189697C1414.778198,902.361816,1415.570557,897.31842,1418.117188,894.343201C1420.268433,891.830017,1422.451904,891.125977,1425.419556,891.988708C1432.38855,894.014648,1435.513672,906.251404,1430.845947,913.23584C1428.933105,916.098022,1425.463623,917.270508,1422.597168,916.023315z"/>
    <path transform="matrix(1,0,0,-1,0,0)" style="stroke:none;fill:#500a78;fill-rule:evenodd" d="M1377.696289,893.407104C1375.776245,891.672424,1375.064941,889.660706,1375.28479,886.58728C1375.73584,880.284668,1380.467041,875.218811,1385.454712,875.698059C1389.016357,876.040283,1390.550537,878.247253,1390.547607,883.023865C1390.545288,886.60376,1389.595947,889.020203,1387.141846,891.692688C1385.26001,893.742065,1383.367676,894.646179,1380.938477,894.656311C1379.307007,894.663147,1378.922607,894.515015,1377.696289,893.407104z"/>
    <path transform="matrix(1,0,0,-1,0,0)" style="stroke:none;fill:#500a78;fill-rule:evenodd" d="M1440.1604,894.004211C1433.518066,890.46405,1431.388306,879.921143,1436.60022,876.380371C1438.357056,875.18689,1441.447144,875.400208,1443.62915,876.865662C1446.91333,879.07135,1449.020508,883.172607,1449.058594,887.433044C1449.084839,890.3526,1448.089233,892.544495,1446.140991,893.85675C1444.651489,894.860107,1441.893921,894.928101,1440.1604,894.004211z"/>
    <path transform="matrix(1,0,0,-1,0,0)" style="stroke:none;fill:#500a78;fill-rule:evenodd" d="M1408.628418,883.281799C1406.486084,882.577698,1403.266235,879.976074,1398.854004,875.383972C1394.141846,870.479919,1391.208496,866.782715,1389.810791,863.98584C1387.255737,858.873047,1388.973022,852.168152,1393.346313,850.181824C1396.192383,848.88916,1399.454346,849.407593,1407.759521,852.472473C1409.659058,853.173462,1411.643188,853.744873,1412.168701,853.742249C1412.694336,853.739624,1414.473633,853.250793,1416.122559,852.655945C1424.166992,849.754028,1425.356323,849.445801,1428.005127,849.576721C1431.317627,849.740417,1433.098755,850.904785,1434.636719,853.912048C1435.560181,855.717773,1435.698975,856.36261,1435.696533,858.83667C1435.69397,861.315186,1435.548584,861.980103,1434.57312,863.976257C1432.549316,868.117798,1421.30957,880.239014,1417.389648,882.507202C1415.945923,883.34259,1415.18457,883.526123,1412.804199,883.612488C1411.195801,883.670898,1409.372925,883.526489,1408.628418,883.281799z"/>
</svg>
