<?xml version="1.0" encoding="UTF-8" standalone="no"?>
<svg xmlns="http://www.w3.org/2000/svg" xmlns:xlink="http://www.w3.org/1999/xlink" width="77.172mm" height="71.060mm" viewBox="1096.954834 -918.642212 77.171631 71.059509">
    <path transform="matrix(1,0,0,-1,0,0)" style="stroke:none;fill:#500a78;fill-rule:evenodd" d="M1118.762695,917.813171C1113.239746,914.891479,1111.454468,904.975342,1115.055176,897.219238C1116.232788,894.682556,1119.927246,890.9646,1121.766357,890.465454C1127.335205,888.953918,1131.554321,892.258545,1132.898682,899.184753C1135.052124,910.278442,1126.306274,921.803711,1118.762695,917.813171z"/>
    <path transform="matrix(1,0,0,-1,0,0)" style="stroke:none;fill:#500a78;fill-rule:evenodd" d="M1146.333496,917.937866C1142.877319,916.369568,1140.622925,913.552368,1138.830322,908.561646C1137.816528,905.739258,1137.711792,899.890076,1138.62793,897.256836C1139.575562,894.53302,1141.211426,892.302185,1143.056763,891.217407C1144.395752,890.430298,1145.111816,890.25708,1146.986816,890.266785C1148.499878,890.274658,1149.682373,890.494324,1150.463989,890.912781C1153.616211,892.600464,1156.702393,897.401062,1157.590454,901.998047C1158.115356,904.715088,1157.851318,909.340576,1157.030029,911.819092C1155.747681,915.688721,1152.388184,918.658691,1149.312256,918.642212C1148.518311,918.637939,1147.177856,918.320984,1146.333496,917.937866z"/>
    <path transform="matrix(1,0,0,-1,0,0)" style="stroke:none;fill:#500a78;fill-rule:evenodd" d="M1100.717285,897.748657C1097.92395,896.041931,1096.684082,893.033813,1097.000366,888.731018C1097.265503,885.124634,1098.185791,882.546631,1100.231445,879.680054C1105.339722,872.521362,1113.922363,872.439514,1115.955933,879.530029C1116.445557,881.237244,1116.372437,885.009521,1115.808716,887.126709C1113.659302,895.198853,1105.705933,900.796753,1100.717285,897.748657z"/>
    <path transform="matrix(1,0,0,-1,0,0)" style="stroke:none;fill:#500a78;fill-rule:evenodd" d="M1163.627563,897.788696C1157.43335,894.722656,1153.276245,885.72168,1155.156372,879.446594C1155.672485,877.723755,1157.531982,875.528992,1159.109619,874.780334C1161.839111,873.485107,1165.795654,874.480591,1168.835938,877.227356C1170.618774,878.838013,1172.834961,882.515015,1173.590698,885.116089C1174.216553,887.270325,1174.320313,891.381775,1173.796387,893.2677C1172.569336,897.684814,1167.748047,899.828247,1163.627563,897.788696z"/>
    <path transform="matrix(1,0,0,-1,0,0)" style="stroke:none;fill:#500a78;fill-rule:evenodd" d="M1133.18457,888.661438C1128.790283,887.918945,1126.197388,885.91449,1122.737061,880.584839C1120.822144,877.635437,1118.856689,875.244019,1115.615112,871.91925C1110.952393,867.136963,1109.738525,865.4375,1108.710571,862.25238C1107.553589,858.667358,1108.630493,853.91217,1111.283936,850.890076C1111.88147,850.209534,1113.2146,849.186157,1114.24646,848.615906C1115.9729,847.661865,1116.404053,847.579407,1119.650024,847.582703C1122.772583,847.585815,1123.7771,847.762573,1128.404175,849.12323C1134.904907,851.03479,1136.834351,851.015015,1143.283081,848.970642C1146.958862,847.805359,1147.980103,847.625183,1151.043213,847.60144C1154.035645,847.578247,1154.851074,847.700867,1156.419556,848.409912C1158.553467,849.374634,1160.303711,851.168762,1161.699463,853.82251C1162.571655,855.480774,1162.680298,856.057617,1162.681763,859.037964C1162.68335,862.245605,1162.625977,862.49646,1161.340332,864.901917C1160.340454,866.772583,1158.891235,868.530579,1155.670044,871.780212C1152.543701,874.934204,1150.594238,877.283325,1148.644897,880.245605C1147.161011,882.500671,1145.381348,884.842285,1144.690186,885.449097C1142.924194,886.999695,1140.43335,888.186462,1138.001343,888.636047C1135.712891,889.059082,1135.543213,889.059998,1133.18457,888.661438z"/>
</svg>
