<?xml version="1.0" encoding="UTF-8" standalone="no"?>
<svg xmlns="http://www.w3.org/2000/svg" xmlns:xlink="http://www.w3.org/1999/xlink" width="68.717mm" height="78.281mm" viewBox="1292.516357 -749.515747 68.717041 78.281250">
    <path transform="matrix(1,0,0,-1,0,0)" style="stroke:none;fill:#500a78;fill-rule:evenodd" d="M1318.402588,744.930237L1318.418213,740.344727L1317.090942,740.344727C1315.950439,740.344727,1315.47168,740.63031,1313.690918,742.372925C1312.550903,743.488403,1311.103149,745.313843,1310.473633,746.429382C1309.844116,747.544861,1309.202393,748.457581,1309.047729,748.457581C1308.604004,748.457581,1308.354492,747.523132,1308.121094,744.988831C1307.914551,742.744507,1308.44751,740.377991,1309.89624,737.105774C1310.09375,736.659607,1309.872437,736.364136,1309.004517,735.915283C1307.709106,735.245483,1304.105347,731.957153,1304.105347,731.445068C1304.105347,731.262573,1304.819702,731.512573,1305.692627,732.000488C1306.565674,732.488403,1307.280029,732.80249,1307.280029,732.698425C1307.280029,732.265137,1304.327271,728.844116,1303.458984,728.271545C1302.539063,727.664795,1302.536011,727.650879,1303.322998,727.648621C1303.765747,727.647339,1304.697876,727.884399,1305.394287,728.175415C1307.533447,729.069214,1307.481689,728.793579,1305.03418,726.258362L1302.672607,723.812195L1302.742188,720.83197C1302.806885,718.054626,1302.725098,717.674805,1301.539307,715.253418C1299.975708,712.060303,1296.052002,705.036499,1293.993652,701.746094C1292.397949,699.195313,1292.258789,698.47168,1292.802124,695.547485C1293.78064,690.280029,1294.629028,688.921692,1297.645142,687.793213C1302.932739,685.81488,1306.748047,686.86853,1307.95105,690.639282C1308.460083,692.234863,1309.556274,693.256226,1313.100098,695.436584C1314.6521,696.391479,1316.591064,697.658936,1317.409058,698.253174C1318.386841,698.963501,1319.521851,699.416504,1320.723022,699.575867C1323.686768,699.968994,1326.123169,701.546143,1328.395142,704.542236L1329.19751,705.600464L1328.982666,704.542236C1328.864502,703.960205,1328.279785,702.778931,1327.683472,701.917114C1326.633545,700.399658,1326.61792,700.321655,1327.192383,699.447937C1328.805298,696.994446,1330.651978,692.337036,1332.095337,687.081909C1334.238281,679.279602,1334.574219,677.332886,1334.347534,674.02655L1334.15625,671.234497L1336.679199,672.501526C1349.417114,678.89801,1358.281616,690.916199,1360.683105,705.045288C1361.535156,710.058228,1361.470947,710.714294,1359.989258,712.14502C1358.559692,713.52533,1352.991333,721.64978,1353.474854,721.64978C1353.648682,721.64978,1354.753784,720.733643,1355.930542,719.613892C1358.255615,717.401428,1358.403687,717.717285,1356.54126,720.915894C1354.506836,724.409424,1351.212524,727.170837,1345.022461,730.571106C1343.761475,731.263794,1342.41272,732.066406,1342.025391,732.354614C1341.382202,732.833252,1341.460938,732.8526,1342.932129,732.577759C1343.818115,732.412231,1345.213135,732.008728,1346.031982,731.68103C1346.85083,731.353394,1347.605835,731.170227,1347.709595,731.274048C1347.985596,731.549988,1344.326782,734.232727,1342.810425,734.866333C1342.096191,735.164734,1340.119263,735.726135,1338.417114,736.113831C1333.130981,737.317871,1333.332031,737.216614,1335.322266,737.672791L1337.085938,738.077026L1334.012329,738.858154C1332.252197,739.30542,1329.84021,739.641968,1328.36853,739.645569L1325.798462,739.651917L1324.729004,741.321045C1324.140747,742.239075,1323.2677,743.770813,1322.78894,744.724915C1321.912964,746.470337,1319.322632,749.515747,1318.713989,749.515747C1318.528931,749.515747,1318.393677,747.524109,1318.402588,744.930237z"/>
</svg>
