<?xml version="1.0" encoding="UTF-8" standalone="no"?>
<svg xmlns="http://www.w3.org/2000/svg" xmlns:xlink="http://www.w3.org/1999/xlink" width="70.219mm" height="78.574mm" viewBox="1201.134521 -749.505737 70.219238 78.573792">
    <path transform="matrix(1,0,0,-1,0,0)" style="stroke:none;fill:#500a78;fill-rule:evenodd" d="M1230.06665,748.970032C1219.70166,746.721619,1212.704102,742.148071,1208.402344,734.810364C1200.82959,721.893433,1199.146118,708.605469,1203.472656,695.900269C1206.331543,687.505188,1212.366821,679.64502,1218.998535,675.680176C1225.167725,671.991699,1230.208374,670.702148,1237.438721,670.962402C1246.136475,671.275513,1252.535645,673.900146,1258.772827,679.712585C1268.345703,688.633606,1273.130981,703.636414,1270.755859,717.282593C1269.123413,726.662476,1263.088623,738.473938,1258.032227,742.185669C1250.237671,747.907349,1238.403198,750.778381,1230.06665,748.970032zM1242.618408,744.771423C1247.237915,743.788513,1251.674561,741.874634,1255.453369,739.234619C1260.427002,735.759949,1265.64917,725.192932,1267.268799,715.326477C1268.378174,708.568237,1267.427246,701.160767,1264.568848,694.294678C1262.891724,690.26593,1259.077148,684.752136,1256.042847,681.970642C1250.328125,676.731995,1241.229248,673.810547,1233.549805,674.748535C1223.896851,675.927612,1217.184082,679.786499,1211.896851,687.195862C1207.54834,693.289856,1204.634521,702.295349,1204.634521,709.64093C1204.634521,719.127258,1209.821045,732.570435,1215.623901,738.124634C1218.176147,740.567505,1224.770508,743.741211,1229.365234,744.738037C1232.395508,745.395447,1239.600586,745.413635,1242.618408,744.771423zM1210.671631,721.354248C1209.561279,719.7948,1208.258545,715.445801,1207.833008,711.877502C1207.19397,706.518616,1208.328857,699.39447,1210.508057,695.085693C1213.45166,689.265442,1220.640869,681.783203,1221.991577,683.133972C1222.444702,683.586975,1222.095459,684.208191,1219.316772,687.892334C1216.425171,691.726318,1214.845215,694.592102,1213.496704,698.448792C1211.286499,704.770264,1210.984741,708.797241,1211.910034,719.621582C1212.167236,722.631104,1211.873535,723.042114,1210.671631,721.354248zM1260.501587,719.621582C1261.364014,709.276794,1261.135498,705.07843,1259.412109,699.612305C1257.971924,695.04425,1256.35022,692.10144,1252.348633,686.794312C1251.132324,685.181152,1250.137085,683.707886,1250.137085,683.520508C1250.137085,682.724731,1251.312866,682.834656,1252.640137,683.754395C1254.831421,685.27301,1259.159302,690.057861,1260.705566,692.671448C1263.868042,698.017151,1265.414551,705.424683,1264.675537,711.686646C1264.083374,716.703369,1262.015991,722.355286,1260.773071,722.355286C1260.365601,722.355286,1260.315674,721.851563,1260.501587,719.621582zM1234.034302,732.392761C1231.039795,728.667419,1230.588623,728.287598,1228.959961,728.121216C1227.009888,727.921997,1225.504517,728.772095,1224.22876,730.792969C1223.060425,732.643799,1222.117798,733.155762,1221.110352,732.486755C1220.135376,731.839478,1216.950928,724.159912,1216.726685,721.915833C1216.507935,719.724976,1217.854492,716.797546,1221.260254,712.06012C1223.811401,708.511658,1225.76001,704.856323,1227.195557,700.926697C1227.638428,699.714172,1228.151001,698.722107,1228.334351,698.722107C1228.517822,698.722107,1228.591675,698.999878,1228.498535,699.339417C1228.405396,699.678894,1228.222656,700.591614,1228.092529,701.367615C1227.682495,703.811523,1225.440674,710.374817,1223.514282,714.771484C1221.33728,719.740356,1221.067627,720.937195,1221.58313,723.341431C1222.398926,727.145081,1223.218506,726.470032,1226.264893,719.485168C1229.649658,711.724365,1230.859741,707.56543,1232.691895,697.396362C1233.45459,693.163208,1234.289185,691.843811,1236.204102,691.843811C1238.283936,691.843811,1238.919434,693.04657,1240.067383,699.15509C1240.587769,701.924011,1241.412231,705.776794,1241.89978,707.716858C1243.409058,713.723755,1248.535767,725.529907,1249.634888,725.529907C1250.459473,725.529907,1250.976685,724.027344,1250.970459,721.64978C1250.965332,719.678833,1250.716064,718.78772,1249.19458,715.300598C1246.781128,709.769043,1245.704712,706.813843,1244.890503,703.484009C1243.811523,699.071838,1243.764893,698.777954,1244.109741,698.564819C1244.288208,698.45459,1244.783447,699.43689,1245.210449,700.747803C1246.398071,704.394165,1248.474609,708.332825,1251.083008,711.886597C1256.115479,718.743103,1256.655151,720.868042,1254.599121,725.7323C1253.949097,727.27002,1253.139893,729.288696,1252.800659,730.218262C1252.145874,732.012695,1250.955566,733.093872,1250.0271,732.737549C1249.717896,732.618958,1248.974121,731.757019,1248.374268,730.822266C1246.089355,727.261414,1242.457153,727.068604,1240.034302,730.379639C1238.111328,733.007324,1237.359375,733.642761,1236.172852,733.642761C1235.298584,733.642761,1234.809082,733.356628,1234.034302,732.392761z"/>
</svg>
