<?xml version="1.0" encoding="UTF-8" standalone="no"?>
<svg xmlns="http://www.w3.org/2000/svg" xmlns:xlink="http://www.w3.org/1999/xlink" width="76.655mm" height="77.036mm" viewBox="1473.265137 -748.757324 76.655029 77.036316">
    <path transform="matrix(1,0,0,-1,0,0)" style="stroke:none;fill:#500a78;fill-rule:evenodd" d="M1504.105347,748.13031C1489.241455,744.794434,1478.670654,734.984924,1474.239746,720.415283C1473.338867,717.453064,1473.27356,716.803955,1473.265137,710.715088C1473.254761,703.24646,1473.757935,700.501404,1476.149414,694.977051C1478.145508,690.365784,1480.508423,686.986267,1484.505615,683.025452C1495.121948,672.505981,1510.059692,669.040283,1524.13916,673.830139C1533.629272,677.058594,1542.347168,684.992554,1546.635254,694.303345C1548.802612,699.009216,1549.664795,702.887329,1549.864746,708.829956C1550.067139,714.844238,1549.766846,717.201355,1548.144409,722.328491C1546.449951,727.683228,1543.592041,732.433594,1539.312378,737.008545C1537.23999,739.223938,1532.755615,742.813843,1532.060547,742.813843C1531.866089,742.813843,1531.34082,741.675049,1530.893311,740.283081L1530.07959,737.75238L1531.290039,736.868164C1533.825073,735.016418,1538.186401,730.184814,1539.865479,727.368042C1544.670288,719.307251,1545.84375,709.303772,1543.030762,700.384338C1540.049316,690.930725,1532.848389,683.190247,1523.58667,679.483276C1520.096313,678.086182,1520.18689,678.044922,1519.934448,681.150085C1519.625244,684.955139,1518.269653,687.695496,1514.930908,691.265625C1511.447998,694.98999,1510.377441,697.225037,1510.177002,701.191284C1510.035767,703.986084,1510.389893,706.364746,1511.114258,707.487488C1511.360718,707.869385,1511.692261,707.78772,1512.789917,707.074585C1514.264282,706.116699,1515.998657,705.574402,1518.662109,705.238342C1520.032715,705.06543,1520.766724,704.667664,1522.625732,703.090576C1524.701904,701.329224,1524.973389,700.937439,1525.641235,698.738892C1526.506836,695.888794,1526.459473,695.911865,1531.466064,695.90509L1535.017212,695.900269L1537.88623,699.885498L1540.755249,703.870789L1534.552856,716.199463C1531.141602,722.980225,1527.736694,729.61377,1526.986328,730.940674C1526.236084,732.267578,1525.62207,733.513733,1525.62207,733.709961C1525.62207,733.906128,1526.355347,736.280396,1527.251465,738.986084C1528.147583,741.691772,1528.821289,743.965027,1528.748535,744.03772C1528.675781,744.110474,1525.557861,742.753723,1521.819702,741.022766C1516.033691,738.343506,1514.749023,737.874512,1513.179688,737.868591C1508.28418,737.850037,1501.908691,736.245728,1496.521606,733.676758C1490.319336,730.718994,1484.666992,725.791931,1481.113037,720.245056C1480.178589,718.786621,1479.414063,717.803467,1479.414063,718.060303C1479.41394,719.224915,1481.36792,724.189087,1482.770752,726.588074C1486.260986,732.556702,1491.067139,737.026917,1497.172363,739.982727C1503.068481,742.837402,1508.489746,743.814941,1514.842041,743.168762L1518.447998,742.802002L1521.944702,744.458435L1525.441406,746.114868L1524.209106,746.617737C1519.132813,748.689087,1509.743042,749.395569,1504.105347,748.13031zM1484.320923,710.777161C1485.377441,706.669189,1487.452271,702.732056,1489.990479,700.018738L1492.112427,697.750366L1492.113525,694.268005C1492.114624,691.02002,1492.728027,686.311157,1493.498413,683.63623L1493.830566,682.483398L1492.734131,683.107178C1490.772827,684.2229,1485.533936,689.65979,1483.706299,692.476196C1480.920654,696.768799,1480.353027,698.599304,1480.613647,702.449951C1480.732666,704.209229,1481.067505,706.59021,1481.357666,707.740967C1481.843384,709.667969,1483.365234,713.950684,1483.505371,713.784851C1483.538574,713.745483,1483.90564,712.392029,1484.320923,710.777161zM1501.345703,692.897339C1505.904053,691.31073,1508.481934,689.926147,1510.914185,687.758301C1513.62854,685.33905,1514.687378,683.100647,1514.687378,679.781616L1514.687378,677.205383L1511.735352,677.205383C1508.224854,677.205383,1502.851074,678.079773,1501.691284,678.839722C1500.641846,679.527344,1499.381592,682.270874,1498.464355,685.864868C1497.717285,688.792114,1497.12146,694.136597,1497.542114,694.136597C1497.676025,694.136597,1499.387573,693.578918,1501.345703,692.897339zM1520.301636,733.522705C1520.003784,732.443909,1520.18396,731.977173,1522.436523,727.993408C1524.812622,723.791138,1524.873047,723.625671,1524.201172,723.155151C1523.326904,722.542847,1523.287598,720.897522,1524.134521,720.368591C1524.480469,720.152588,1525.234375,719.871338,1525.810059,719.743652C1526.939941,719.49292,1526.578735,720.086426,1532.079102,709.441406C1534.512695,704.731567,1534.622803,704.418762,1534.126221,703.621338C1533.063354,701.91449,1532.195557,701.191284,1531.210327,701.191284C1530.382568,701.191284,1530.079712,701.467163,1529.370117,702.867432C1528.542236,704.501282,1526.065308,707.094788,1523.438232,709.078491C1522.476685,709.804626,1521.466309,710.154541,1519.573975,710.416748C1518.164795,710.612061,1516.595947,710.986877,1516.087646,711.249695C1514.5,712.070679,1512.641724,714.448853,1512.061768,716.401794C1511.399414,718.632202,1511.390747,719.731018,1512.012695,722.630432C1512.483398,724.824829,1512.480835,724.843628,1511.73584,724.637695C1510.02417,724.164673,1505.091187,721.542908,1503.108765,720.052734C1501.939209,719.173523,1500.158936,717.503723,1499.152588,716.342041C1497.362061,714.275269,1494.22876,708.75592,1494.22876,707.668701C1494.22876,707.016602,1495.34082,705.334717,1496.815186,703.756714L1497.878662,702.61853L1499.020264,705.65332C1500.615601,709.894287,1504.473999,715.320129,1506.176758,715.716919C1506.483398,715.788391,1506.880493,715.188965,1507.26062,714.0802C1507.85144,712.357056,1507.848145,712.309326,1507.038452,710.90564C1505.075439,707.502563,1504.205078,701.711243,1505.157471,698.390442C1505.348145,697.725525,1505.463379,697.140686,1505.413452,697.090759C1505.174561,696.851868,1498.772949,699.68512,1497.143433,700.750977C1491.927612,704.162598,1488.585083,711.007324,1488.585083,718.276794C1488.585083,721.698242,1488.750366,721.98999,1492.276245,724.79187C1498.483521,729.724548,1504.688965,732.026917,1513.003418,732.482178C1516.299194,732.662659,1517.004028,732.816772,1518.470825,733.677368C1519.396973,734.220825,1520.260986,734.673401,1520.390869,734.683228C1520.520752,734.692993,1520.480591,734.170776,1520.301636,733.522705z"/>
</svg>
