<?xml version="1.0" encoding="UTF-8" standalone="no"?>
<svg xmlns="http://www.w3.org/2000/svg" xmlns:xlink="http://www.w3.org/1999/xlink" width="75.386mm" height="78.990mm" viewBox="1099.307007 -755.494812 75.386108 78.989685">
    <path transform="matrix(1,0,0,-1,0,0)" style="stroke:none;fill:#500a78;fill-rule:evenodd" d="M1109.39209,754.761353C1108.656128,754.018005,1105.602417,748.528625,1105.602417,747.94873C1105.602417,747.813721,1106.112183,747.227051,1106.735229,746.64502L1107.868042,745.586792L1107.221313,744.475281C1104.146729,739.191895,1102.365234,734.841187,1100.772095,728.725281C1099.668091,724.487305,1099.511841,723.322998,1099.352173,718.143311C1099.14624,711.457886,1099.595093,708.056152,1101.400269,702.622986C1102.702759,698.702942,1103.735474,696.542236,1105.699341,693.628296C1111.400757,685.168152,1119.827515,679.286621,1129.235596,677.200745C1134.834717,675.959351,1143.396851,676.421204,1148.716919,678.251587C1155.569092,680.609009,1162.362793,685.71405,1167.067871,692.041016C1174.291016,701.75415,1176.538208,715.324951,1173.142334,728.725281C1171.713013,734.365234,1169.502319,739.820801,1167.11145,743.608276C1166.04834,745.292236,1166.056519,745.851379,1167.154419,746.570801C1168.581909,747.506104,1168.338257,748.572021,1165.610352,753.324585C1164.147461,755.87323,1163.742798,755.998352,1161.328857,754.648438C1160.458862,754.161865,1158.533691,753.13678,1157.050659,752.370422C1152.497314,750.017639,1152.009521,748.655334,1154.137939,744.235657C1158.441895,735.298218,1160.136963,730.296875,1161.189453,723.429382C1162.496582,714.900879,1160.623169,706.624268,1155.881592,699.979492C1149.188232,690.599609,1137.195801,687.682312,1126.440918,692.817871C1121.246948,695.298096,1116.328857,701.055176,1114.239624,707.100647C1112.713257,711.517761,1112.193481,715.054443,1112.412476,719.533569C1112.777222,726.991211,1114.555786,733.439819,1118.498535,741.600098C1121.021729,746.822144,1121.371582,748.389465,1120.359253,749.934509C1119.855957,750.702637,1112.774414,754.759705,1110.896729,755.355652C1110.427856,755.504456,1109.935425,755.309937,1109.39209,754.761353zM1106.837036,717.966919L1106.837036,715.497803L1105.426025,715.497803L1104.015137,715.497803L1103.907959,717.574707C1103.762207,720.397705,1103.91333,720.677856,1105.511475,720.545715L1106.837036,720.436035L1106.837036,717.966919zM1169.976318,717.966919L1169.976318,715.497803L1168.56543,715.497803L1167.154419,715.497803L1167.050415,718.076172L1166.946289,720.654541L1168.461304,720.545288L1169.976318,720.436035L1169.976318,717.966919zM1166.546143,734.633606C1166.744141,734.391113,1167.148926,733.369263,1167.445679,732.362793C1168.058838,730.283325,1167.808105,729.802917,1166.044434,729.677795C1165.144653,729.613892,1164.991821,729.776611,1164.454468,731.370789C1163.64563,733.77063,1163.669922,734.338074,1164.597168,734.710815C1165.709595,735.157898,1166.131836,735.141174,1166.546143,734.633606zM1159.631104,693.573608C1160.651855,692.649902,1160.400146,691.850037,1158.600708,690.298767L1156.925171,688.854431L1155.922729,689.960449L1154.92041,691.066406L1156.437134,692.611938C1158.088623,694.294678,1158.648193,694.463135,1159.631104,693.573608zM1109.37085,704.735107C1110.341431,702.753967,1110.38208,701.693542,1109.505737,701.224487C1108.034058,700.43689,1107.452271,700.764465,1106.686035,702.812622C1105.778564,705.237915,1105.779419,705.281494,1106.748779,705.961975C1107.914429,706.780212,1108.504028,706.504333,1109.37085,704.735107zM1167.647217,705.607117C1168.067871,705.208008,1168.022827,704.826172,1167.339722,702.999451C1166.701294,701.292358,1166.387451,700.861633,1165.788696,700.870544C1164.868774,700.884277,1163.803467,701.649963,1163.803467,702.297363C1163.803467,703.045776,1164.960327,705.945251,1165.372681,706.230469C1165.831909,706.548096,1166.98999,706.230713,1167.647217,705.607117zM1117.488647,692.630615L1119.104614,691.103882L1118.049072,689.922546L1116.99353,688.741211L1115.178101,690.439392C1114.179565,691.373352,1113.362549,692.274536,1113.362549,692.442017C1113.362549,692.953125,1114.739014,694.15741,1115.32312,694.15741C1115.625488,694.15741,1116.599976,693.470337,1117.488647,692.630615zM1109.97168,734.373718C1110.407227,733.938171,1109.19873,729.885437,1108.560303,729.640503C1107.878174,729.378662,1105.9552,730.12793,1105.9552,730.655518C1105.9552,731.035278,1106.404297,732.484985,1107.20105,734.676575C1107.392944,735.204529,1109.355469,734.98999,1109.97168,734.373718z"/>
</svg>
