<?xml version="1.0" encoding="UTF-8" standalone="no"?>
<svg xmlns="http://www.w3.org/2000/svg" xmlns:xlink="http://www.w3.org/1999/xlink" width="73.026mm" height="77.964mm" viewBox="1381.001343 -749.692139 73.025757 77.963745">
    <path transform="matrix(1,0,0,-1,0,0)" style="stroke:none;fill:#500a78;fill-rule:evenodd" d="M1400.718994,748.104858C1400.693848,747.231812,1400.706909,745.507446,1400.748047,744.272827L1400.822754,742.028076L1399.694092,742.685547C1399.073242,743.047119,1397.566528,744.254517,1396.345703,745.368713C1394.567627,746.991455,1394.082275,747.280334,1393.905884,746.82074C1393.642334,746.133911,1394.282471,742.379517,1394.925415,740.840515C1395.364746,739.789063,1395.3302,739.693604,1394.085938,738.521912C1393.372314,737.849792,1392.328369,736.572876,1391.766235,735.684265C1390.583008,733.813965,1389.290527,732.937317,1387.716187,732.937317C1386.401367,732.937317,1386.566284,732.396545,1387.962524,732.129639C1388.969116,731.937256,1390.410034,732.452148,1391.922485,733.544678C1392.718262,734.119446,1392.696533,734.034485,1391.662842,732.528198C1390.25647,730.478638,1388.710938,729.504883,1386.258667,729.123047L1384.352295,728.826294L1385.939575,728.368103C1387.121338,728.026978,1387.977539,728.001587,1389.290527,728.268799C1390.260498,728.466248,1391.101685,728.584351,1391.159668,728.53125C1391.437256,728.277222,1390.075928,723.552429,1389.262695,721.947693C1388.75769,720.950928,1386.692139,717.558838,1384.672852,714.409668C1382.448364,710.940613,1381.001343,708.326355,1381.001343,707.776672C1381.001343,706.537842,1381.876465,703.273926,1382.566162,701.939941C1382.877563,701.33783,1383.515503,700.594177,1383.983643,700.287354C1385.216675,699.479492,1389.904053,698.736206,1391.503052,699.095093C1392.990356,699.428833,1394.623779,701.036377,1394.974243,702.511292C1395.283936,703.814636,1396.060913,704.650513,1397.756104,705.50415C1398.532227,705.894897,1400.198853,706.890259,1401.459839,707.716064C1403.231079,708.875916,1404.232666,709.275513,1405.862915,709.472778C1407.874268,709.716187,1411.035034,711.000366,1411.508545,711.766602C1411.967163,712.508484,1412.46106,712.067017,1413.375488,710.097778C1414.15918,708.410034,1414.313232,707.595886,1414.293335,705.247681C1414.264404,701.847534,1413.204102,698.862549,1410.085449,693.402344C1407.313721,688.549561,1406.362671,685.825256,1406.136353,682.090149C1406.034668,680.411682,1406.079834,678.586304,1406.236572,678.033691C1406.47998,677.176392,1406.560181,677.37793,1406.783447,679.408325C1407.227783,683.45105,1408.325439,686.008606,1412.049072,691.678406C1413.958496,694.585938,1415.848389,697.839966,1416.248535,698.909668C1418.390015,704.63324,1417.826294,710.199341,1414.677734,714.418762C1414.114136,715.174133,1413.970215,715.678894,1414.174805,716.182434C1414.332397,716.570435,1414.472412,718.157776,1414.485962,719.709778C1414.506836,722.121704,1414.361816,722.845703,1413.487549,724.693726C1412.432983,726.922913,1411.366699,728.151917,1411.882202,726.544067C1413.292114,722.14624,1413.020996,718.746338,1411.006958,715.570435C1408.820557,712.122925,1404.914185,710.938232,1400.663452,712.433594C1398.807861,713.086426,1398.660889,713.095154,1398.960693,712.534912C1399.141113,712.197632,1399.697998,711.702759,1400.197998,711.435181C1400.697998,711.167542,1401.107178,710.816345,1401.107178,710.654724C1401.107178,710.38269,1398.938599,708.742554,1395.474243,706.394226C1394.502441,705.735474,1393.746826,704.797852,1393.118652,703.471191C1392.610107,702.396973,1391.871582,701.34552,1391.477539,701.134644C1390.525146,700.624939,1386.725098,700.949341,1385.355957,701.657349C1384.761597,701.964722,1384.106201,702.660156,1383.899414,703.202881C1383.184204,705.080811,1382.705566,707.855591,1382.958984,708.654175C1383.098877,709.095215,1384.999634,712.105408,1387.182617,715.343506C1390.993652,720.996155,1391.978027,722.984131,1392.488403,726.05896C1392.800049,727.935791,1394.269531,730.19458,1396.81189,732.704224C1398.873413,734.739258,1398.901123,734.753052,1399.125977,733.857056C1399.498291,732.374023,1401.381958,730.516357,1402.938599,730.097168C1404.221436,729.751709,1405.43689,729.988831,1404.356934,730.37384C1402.45752,731.050842,1400.904297,733.795227,1401.320923,735.737671C1401.601685,737.046387,1402.229126,738.228271,1402.643066,738.228271C1402.840332,738.228271,1403.394531,737.871155,1403.874512,737.434631C1404.68689,736.696045,1404.72937,736.689941,1404.487061,737.346436C1403.230713,740.750732,1402.495728,743.389404,1402.58606,744.170593C1402.691406,745.080627,1402.753906,745.047913,1404.837158,742.990234C1406.825928,741.02594,1407.311646,740.187439,1408.412354,736.817383C1408.688232,735.972778,1409.293213,737.880981,1409.123413,739.060059L1408.978271,740.068115L1410.774658,739.838379C1418.814819,738.809875,1426.6427,734.381836,1431.392456,728.175415L1433.012085,726.05896L1430.728027,728.029236C1427.681396,730.657349,1425.710938,731.958374,1422.222412,733.645386C1418.493042,735.448853,1417.521851,735.465088,1420.589111,733.672729C1428.850098,728.845215,1434.145996,721.931458,1435.696777,713.949646C1436.502686,709.801636,1434.905029,704.575562,1431.877319,701.455811C1430.003052,699.524658,1431.062622,699.838074,1433.289917,701.873657C1438.67749,706.797607,1440.138428,712.582764,1438.28418,721.64978L1438.103882,722.531616L1438.646729,721.64978C1439.958862,719.518127,1440.966064,715.330017,1440.966064,712.005554C1440.966064,702.528931,1437.452026,698.29187,1423.505737,690.952332C1412.156372,684.979492,1408.161865,680.508301,1408.161865,673.777527C1408.161865,672.362305,1408.293457,671.601318,1408.514526,671.737976C1408.708496,671.85791,1408.868774,672.383118,1408.870728,672.905212C1408.880859,675.712219,1412.623047,680.401367,1416.927979,683.001526C1418.160156,683.74585,1422.289917,685.810425,1426.10498,687.589478C1429.920166,689.368591,1434.070679,691.518127,1435.328369,692.366333C1441.51001,696.535278,1445.481689,703.023376,1445.580322,709.113708L1445.609131,710.891418L1446.116455,709.730469C1446.395386,709.09198,1446.807495,707.386963,1447.032227,705.941467C1448.024902,699.556641,1444.813843,693.139587,1438.978271,689.846191C1437.9198,689.24884,1437.120239,688.693726,1437.201416,688.61261C1437.44165,688.372375,1441.878662,690.141724,1443.69519,691.202209C1446.235718,692.685303,1450.535034,697.157227,1451.603027,699.427612C1454.539307,705.669312,1453.718018,710.893555,1448.786865,717.341797C1447.642578,718.838196,1446.174438,721.094238,1445.524292,722.355286C1444.805786,723.74884,1443.400391,725.585693,1441.940918,727.038879L1439.539673,729.429688L1441.2229,728.568481C1443.347168,727.481567,1445.096436,725.633545,1446.770264,722.708008C1448.533691,719.625732,1449.925537,718.249451,1451.963867,717.572388C1454.413696,716.758728,1454.719238,717.094421,1452.681641,718.361084C1451.160889,719.306396,1450.740723,719.837158,1449.620117,722.22876C1446.621826,728.627197,1446.05249,729.596436,1444.248657,731.371582C1441.55896,734.018677,1437.874023,735.797607,1431.618652,737.468811C1426.490601,738.838806,1423.133057,739.943359,1425.613403,739.444336C1430.991943,738.362244,1432.872559,738.389221,1435.209961,739.582214C1436.404053,740.19165,1438.205078,741.755615,1437.712769,741.755615C1437.609375,741.755615,1436.910645,741.499023,1436.160034,741.185364C1434.043213,740.300903,1430.845581,740.676392,1427.029297,742.25769C1419.250122,745.480835,1416.485962,745.76355,1411.261963,743.870544L1408.189331,742.75708L1405.618286,744.930664C1404.204102,746.126099,1402.533691,747.686523,1401.906006,748.398193L1400.764893,749.692139L1400.718994,748.104858zM1398.223877,741.004761C1397.352173,740.452148,1396.885254,740.693909,1396.349976,741.975098C1395.619507,743.723267,1395.62793,743.7276,1397.253784,742.439941C1398.322632,741.593384,1398.571533,741.225159,1398.223877,741.004761z"/>
    <path transform="matrix(1,0,0,-1,0,0)" style="stroke:none;fill:#500a78;fill-rule:evenodd" d="M1397.829346,726.163086C1397.342529,725.717834,1396.848022,724.924438,1396.730347,724.400024L1396.516479,723.446533L1398.547241,723.622925C1400.292969,723.774597,1400.711182,723.957947,1401.526245,724.929199C1402.047729,725.550537,1402.365234,726.159485,1402.231689,726.282349C1402.098145,726.405151,1401.252197,726.610718,1400.351563,726.739136C1398.947144,726.939392,1398.588379,726.857483,1397.829346,726.163086z"/>
    <path transform="matrix(1,0,0,-1,0,0)" style="stroke:none;fill:#500a78;fill-rule:evenodd" d="M1415.582642,723.635986C1415.575195,723.467407,1416.116577,722.428223,1416.785645,721.326843C1421.520142,713.533081,1422.161621,704.399109,1418.496216,696.968567C1416.778564,693.48645,1416.761475,693.42865,1417.815674,694.66571C1419.326904,696.439026,1421.19458,700.300903,1421.928223,703.169922C1423.256958,708.364807,1422.642822,713.40094,1420.098755,718.174072C1419.008545,720.219666,1415.612915,724.326355,1415.582642,723.635986z"/>
    <path transform="matrix(1,0,0,-1,0,0)" style="stroke:none;fill:#500a78;fill-rule:evenodd" d="M1385.01709,708.443726C1384.910034,708.16449,1384.977539,707.658813,1385.167114,707.319946C1385.39563,706.911682,1385.38501,706.425171,1385.135742,705.877991C1384.61377,704.732544,1385.205078,704.208435,1386.218506,704.918213C1387.068848,705.513855,1387.263672,707.090027,1386.632568,708.269104C1386.203613,709.070679,1385.29541,709.168884,1385.01709,708.443726z"/>
</svg>
