<?xml version="1.0" encoding="UTF-8" standalone="no"?>
<svg xmlns="http://www.w3.org/2000/svg" xmlns:xlink="http://www.w3.org/1999/xlink" width="77.176mm" height="71.852mm" viewBox="1098.864502 -1097.274902 77.175659 71.852051">
    <path transform="matrix(1,0,0,-1,0,0)" style="stroke:none;fill:#500a78;fill-rule:evenodd" d="M1120.697998,1096.227661C1115.622314,1093.007446,1114.075317,1083.367188,1117.413086,1075.757446C1119.265869,1071.533569,1122.42041,1068.562256,1125.550171,1068.092896C1132.346558,1067.07373,1136.940674,1076.113037,1134.492065,1085.687012C1132.175537,1094.744263,1125.908447,1099.533203,1120.697998,1096.227661z"/>
    <path transform="matrix(1,0,0,-1,0,0)" style="stroke:none;fill:#500a78;fill-rule:evenodd" d="M1147.514404,1096.532837C1143.185425,1094.24353,1139.778687,1087.248535,1139.776123,1080.644043C1139.771729,1069.601929,1147.860352,1064.230591,1154.384277,1070.943237C1157.684326,1074.338623,1159.345337,1079.390381,1159.080444,1085.225098C1158.82959,1090.75,1157.101807,1094.571045,1154.044189,1096.362915C1152.213867,1097.435669,1149.361694,1097.509888,1147.514404,1096.532837z"/>
    <path transform="matrix(1,0,0,-1,0,0)" style="stroke:none;fill:#500a78;fill-rule:evenodd" d="M1104.267212,1076.082764C1102.606079,1075.675171,1101.075928,1074.435059,1100.028198,1072.647217C1098.885132,1070.696655,1098.523438,1066.904419,1099.204834,1064.01416C1100.374268,1059.054199,1103.876221,1054.351563,1107.861328,1052.389648C1109.826538,1051.422119,1110.38916,1051.301147,1112.341553,1051.425415C1115.027222,1051.596436,1116.407471,1052.448486,1117.772949,1054.778442C1118.910156,1056.719116,1119.275513,1060.51123,1118.604492,1063.411377C1116.85144,1070.988281,1109.605103,1077.3927,1104.267212,1076.082764z"/>
    <path transform="matrix(1,0,0,-1,0,0)" style="stroke:none;fill:#500a78;fill-rule:evenodd" d="M1164.949585,1075.14917C1159.496826,1072.279541,1155.772461,1065.68811,1156.043457,1059.386475C1156.189331,1055.994019,1156.93335,1054.259277,1158.938477,1052.636353C1160.024902,1051.75708,1160.642456,1051.550171,1162.542358,1051.429199C1164.565063,1051.300415,1165.100464,1051.413818,1167.087158,1052.391846C1172.550537,1055.081543,1176.749756,1062.999756,1175.941895,1069.089111C1175.563232,1071.943359,1173.974976,1074.420898,1171.792847,1075.560913C1170.199707,1076.393188,1166.94104,1076.197144,1164.949585,1075.14917z"/>
    <path transform="matrix(1,0,0,-1,0,0)" style="stroke:none;fill:#500a78;fill-rule:evenodd" d="M1135.133545,1063.713501C1131.302979,1063.050049,1128.335205,1060.917603,1126.11853,1057.235596C1123.786011,1053.361206,1122.186279,1051.448975,1118.689087,1048.354858C1114.674194,1044.802856,1113.223022,1043.043335,1112.289429,1040.594849C1111.133179,1037.562744,1111.029175,1035.808105,1111.846436,1033.117554C1113.091919,1029.01709,1115.999146,1026.400879,1120.146606,1025.648071C1122.706055,1025.183594,1123.915771,1025.35083,1129.711792,1026.970703C1136.145996,1028.768921,1138.923828,1028.750977,1145.408447,1026.869141C1151.673706,1025.051147,1154.228882,1025.000732,1157.538574,1026.630127C1160.129028,1027.905396,1161.361816,1029.188721,1162.614746,1031.914551C1163.372192,1033.562256,1163.463135,1034.172974,1163.329712,1036.714722C1163.075684,1041.553711,1161.963989,1043.274414,1155.119385,1049.421875C1152.726196,1051.571411,1151.381348,1053.165894,1149.441895,1056.152954C1148.044189,1058.305786,1146.287109,1060.573242,1145.537231,1061.19165C1143.027466,1063.261841,1138.651001,1064.322632,1135.133545,1063.713501z"/>
</svg>
