<?xml version="1.0" encoding="UTF-8" standalone="no"?>
<svg xmlns="http://www.w3.org/2000/svg" xmlns:xlink="http://www.w3.org/1999/xlink" width="75.918mm" height="72.167mm" viewBox="1469.218018 -1097.520264 75.917725 72.167236">
    <path transform="matrix(1,0,0,-1,0,0)" style="stroke:none;fill:#500a78;fill-rule:evenodd" d="M1492.560425,1097.189209C1490.953125,1096.705078,1488.61438,1094.26709,1487.516968,1091.931519C1486.159912,1089.043457,1485.649902,1086.494751,1485.681885,1082.760376C1485.7323,1076.891357,1488.221558,1071.32251,1491.940186,1068.759888C1493.947021,1067.376953,1495.167358,1067.173462,1493.613525,1068.480957C1491.265869,1070.456299,1489.318481,1075.729858,1489.328979,1080.08313C1489.343384,1085.99585,1492.119263,1091.219604,1495.249634,1091.224731C1497.939331,1091.229126,1500.868408,1087.541016,1502.172607,1082.507935C1502.947876,1079.516235,1502.895264,1074.543335,1502.059937,1071.859619C1501.285156,1069.370239,1501.656372,1069.363403,1502.91333,1071.843872C1506.931641,1079.773682,1504.370605,1092.605957,1498.027954,1096.322754C1496.282593,1097.345581,1494.183838,1097.678223,1492.560425,1097.189209z"/>
    <path transform="matrix(1,0,0,-1,0,0)" style="stroke:none;fill:#500a78;fill-rule:evenodd" d="M1518.00769,1097.18689C1517.390503,1097.008301,1516.003052,1096.055664,1514.924561,1095.069824C1509.125244,1089.769653,1507.755493,1078.282959,1512.049072,1070.956421C1512.564819,1070.076538,1513.044067,1069.356567,1513.114258,1069.356567C1513.184448,1069.356567,1512.9104,1070.189819,1512.505371,1071.208374C1511.490356,1073.76001,1511.436401,1080.15918,1512.402466,1083.408203C1513.223389,1086.168945,1515.380615,1089.57605,1516.918091,1090.539917C1519.696045,1092.281494,1522.850952,1090.187012,1524.244141,1085.676392C1525.082275,1082.963013,1525.191528,1077.874878,1524.469727,1075.176636C1523.810181,1072.711182,1522.39563,1070.054565,1521.033203,1068.722534C1519.697998,1067.417114,1519.856689,1067.31958,1521.746338,1068.283569C1526.816284,1070.870117,1529.927856,1079.696777,1528.473389,1087.366211C1527.594604,1092,1524.515137,1096.369751,1521.547729,1097.193726C1519.973999,1097.630737,1519.538452,1097.629883,1518.00769,1097.18689z"/>
    <path transform="matrix(1,0,0,-1,0,0)" style="stroke:none;fill:#500a78;fill-rule:evenodd" d="M1473.957397,1076.265625C1471.224854,1075.075684,1469.218018,1071.01416,1469.218018,1066.673828C1469.218018,1058.913574,1475.331543,1050.999634,1481.312378,1051.017822C1482.409668,1051.021118,1482.389648,1051.047363,1480.681885,1051.84436C1474.533936,1054.713257,1471.254639,1066.172729,1475.396362,1070.314453C1476.741333,1071.659424,1477.861084,1071.78064,1479.976318,1070.810059C1481.871826,1069.94043,1484.939575,1066.612061,1485.948486,1064.330566C1486.997559,1061.95874,1487.6875,1058.638672,1487.424561,1057.228638C1487.250366,1056.294556,1487.279419,1056.231079,1487.617676,1056.806885C1488.315674,1057.995605,1488.395874,1061.949463,1487.772095,1064.424072C1486.450562,1069.66626,1483.496094,1073.803101,1479.729248,1075.685425C1477.394653,1076.852051,1475.695923,1077.022827,1473.957397,1076.265625z"/>
    <path transform="matrix(1,0,0,-1,0,0)" style="stroke:none;fill:#500a78;fill-rule:evenodd" d="M1534.901733,1075.888916C1531.475586,1074.293945,1528.286865,1070.141724,1526.923584,1065.50061C1526.321655,1063.451538,1526.190918,1058.051025,1526.713623,1056.834473C1526.931396,1056.327515,1527.023682,1056.702881,1527.041504,1058.168335C1527.140747,1066.32666,1535.314453,1074.436035,1539.206055,1070.237061C1542.120483,1067.092163,1540.902222,1058.70166,1536.900635,1054.360474C1536.067749,1053.456909,1534.665039,1052.327881,1533.783691,1051.851563L1532.180908,1050.985596L1533.80835,1051.127563C1539.836182,1051.653564,1545.228027,1059.155273,1545.135742,1066.887451C1545.083496,1071.259521,1543.392578,1074.729248,1540.672119,1076.046143C1538.7229,1076.989746,1537.175659,1076.94751,1534.901733,1075.888916z"/>
    <path transform="matrix(1,0,0,-1,0,0)" style="stroke:none;fill:#500a78;fill-rule:evenodd" d="M1503.609497,1065.707764C1499.441284,1064.626465,1497.266357,1062.569946,1494.43335,1057.031494C1492.280396,1052.82251,1490.809082,1051.083252,1485.373291,1046.321167C1481.70874,1043.11084,1480.325684,1040.430664,1480.336426,1036.559692C1480.341919,1034.562134,1480.542114,1033.471191,1481.146973,1032.143066C1482.973022,1028.133545,1487.134399,1025.496094,1491.612671,1025.51001C1494.130127,1025.517822,1495.283569,1025.828369,1501.316772,1028.122437C1503.848389,1029.085083,1504.80896,1029.26709,1507.489624,1029.291748C1510.422607,1029.31897,1510.905762,1029.217651,1513.838867,1027.961182C1518.462891,1025.980103,1521.570557,1025.185059,1523.931641,1025.37915C1529.624756,1025.847046,1534.120972,1030.760132,1534.120972,1036.512939C1534.120972,1040.334351,1532.683594,1042.827881,1528.545166,1046.185913C1524.094727,1049.796997,1522.78418,1051.090088,1521.328369,1053.307129C1520.022583,1055.295776,1519.953003,1055.348999,1520.174927,1054.188965C1520.565552,1052.147583,1522.365723,1048.773804,1524.917725,1045.300415C1528.085938,1040.987915,1528.829956,1039.465576,1528.829956,1037.2948C1528.829956,1035.069702,1528.369873,1033.859009,1526.956543,1032.365601C1524.608276,1029.884399,1522.160156,1029.627319,1516.929443,1031.3125C1511.118896,1033.184448,1507.011108,1032.696777,1501.509644,1029.481934C1498.060181,1027.466187,1496.104126,1026.897339,1493.375488,1027.116333C1488.345215,1027.520142,1485.144653,1031.113892,1485.106445,1036.401245C1485.078247,1040.309326,1485.730469,1041.459229,1490.886719,1046.591675C1494.140015,1049.829956,1495.923096,1051.917847,1496.912842,1053.648193C1499.904785,1058.878662,1502.411865,1061.078247,1506.606689,1062.152954C1510.656372,1063.19043,1514.597168,1062.186523,1517.454346,1059.389648C1519.242188,1057.639526,1519.385986,1058.05127,1517.807007,1060.400513C1516.432373,1062.445923,1513.918823,1064.412598,1511.625366,1065.237305C1509.348755,1066.05603,1505.762939,1066.266479,1503.609497,1065.707764z"/>
</svg>
