<?xml version="1.0" encoding="UTF-8" standalone="no"?>
<svg xmlns="http://www.w3.org/2000/svg" xmlns:xlink="http://www.w3.org/1999/xlink" width="54.516mm" height="59.560mm" viewBox="1297.660156 -1091.645142 54.515625 59.560181">
    <path transform="matrix(1,0,0,-1,0,0)" style="stroke:none;fill:#500a78;fill-rule:evenodd" d="M1314.38147,1091.06604C1313.498047,1090.001587,1312.494019,1085.229492,1313.153564,1085.229492C1313.261597,1085.229492,1314.074341,1085.411865,1314.959595,1085.634888L1316.569092,1086.040161L1316.338623,1088.001099C1315.915894,1091.598145,1315.440674,1092.342285,1314.38147,1091.06604z"/>
    <path transform="matrix(1,0,0,-1,0,0)" style="stroke:none;fill:#500a78;fill-rule:evenodd" d="M1334.009521,1091.314209C1333.925293,1091.168701,1333.742676,1090.112061,1333.603638,1088.966187C1333.4646,1087.82019,1333.277588,1086.691528,1333.187988,1086.458008C1333.089355,1086.20105,1333.485107,1085.949829,1334.190308,1085.821533C1334.831177,1085.705078,1335.725708,1085.502319,1336.178101,1085.370972C1336.980957,1085.137939,1336.994873,1085.173584,1336.76123,1086.856323C1336.345215,1089.850464,1334.702637,1092.511597,1334.009521,1091.314209z"/>
    <path transform="matrix(1,0,0,-1,0,0)" style="stroke:none;fill:#500a78;fill-rule:evenodd" d="M1312.620361,1082.909424C1310.185791,1080.709839,1308.95459,1075.909058,1309.742188,1071.686646C1311.445557,1062.554077,1318.508423,1059.471802,1321.95166,1066.358276C1322.937256,1068.329346,1323.009888,1068.744141,1323.009888,1072.398438C1323.009888,1076.280151,1322.994751,1076.351807,1321.598877,1079.087402C1319.018066,1084.145386,1315.599243,1085.600708,1312.620361,1082.909424z"/>
    <path transform="matrix(1,0,0,-1,0,0)" style="stroke:none;fill:#500a78;fill-rule:evenodd" d="M1331.630737,1083.373657C1328.615356,1081.341553,1326.713623,1077.019043,1326.713623,1072.197266C1326.713623,1066.109009,1329.374878,1062.306152,1333.323975,1062.751343C1336.498169,1063.109131,1339.273926,1066.824829,1340.121704,1071.850952C1341.448608,1079.717285,1336.390503,1086.581299,1331.630737,1083.373657z"/>
    <path transform="matrix(1,0,0,-1,0,0)" style="stroke:none;fill:#500a78;fill-rule:evenodd" d="M1298.325317,1073.825562C1297.740601,1072.933228,1297.40918,1068.561035,1297.889771,1068.080444C1298.012207,1067.958008,1298.589355,1068.259277,1299.172485,1068.749756C1299.755493,1069.240356,1300.401611,1069.698242,1300.608398,1069.76709C1300.99707,1069.896606,1299.833496,1073.802734,1299.225098,1074.411133C1299.044556,1074.591797,1298.665894,1074.345459,1298.325317,1073.825562z"/>
    <path transform="matrix(1,0,0,-1,0,0)" style="stroke:none;fill:#500a78;fill-rule:evenodd" d="M1349.633789,1072.332275C1349.209961,1071.058838,1348.923462,1069.956787,1348.996948,1069.883301C1349.599854,1069.280396,1351.742676,1068.048218,1351.905273,1068.210815C1352.673584,1068.979126,1351.652832,1074.647583,1350.746216,1074.647583C1350.558105,1074.647583,1350.057495,1073.605713,1349.633789,1072.332275z"/>
    <path transform="matrix(1,0,0,-1,0,0)" style="stroke:none;fill:#500a78;fill-rule:evenodd" d="M1300.636353,1067.69751C1298.417236,1066.53479,1297.965332,1065.51123,1297.969727,1061.657593C1297.973145,1058.586304,1298.077393,1058.039673,1299.012085,1056.186401C1301.401001,1051.449585,1305.669556,1048.975708,1308.849976,1050.484985C1310.917725,1051.466187,1311.722412,1053.146118,1311.722412,1056.481689C1311.722412,1058.908203,1311.569336,1059.624878,1310.629883,1061.596436C1308.230713,1066.631104,1303.783325,1069.346313,1300.636353,1067.69751z"/>
    <path transform="matrix(1,0,0,-1,0,0)" style="stroke:none;fill:#500a78;fill-rule:evenodd" d="M1344.42041,1067.385376C1340.84668,1065.604492,1338.340332,1061.497803,1338.088989,1057.010864C1337.961304,1054.731689,1338.05603,1054.150757,1338.773315,1052.815186C1340.881104,1048.890869,1345.008911,1049.077637,1348.841064,1053.27063C1353.828857,1058.728027,1352.866943,1068.290283,1347.32959,1068.296997C1346.737183,1068.297729,1345.427979,1067.887451,1344.42041,1067.385376z"/>
    <path transform="matrix(1,0,0,-1,0,0)" style="stroke:none;fill:#500a78;fill-rule:evenodd" d="M1321.129272,1058.208984C1319.055298,1057.175415,1318.048462,1056.009033,1316.629028,1052.995361C1315.907593,1051.463623,1314.660278,1049.936523,1311.86792,1047.16626C1308.462891,1043.787964,1308.024658,1043.207153,1307.487549,1041.359253C1306.376831,1037.538818,1307.807129,1034.055786,1311.081055,1032.607544C1313.138062,1031.697632,1314.960571,1031.938599,1318.7771,1033.625366C1321.003418,1034.609375,1322.202148,1034.909668,1324.457153,1035.048462C1327.197021,1035.217041,1327.454346,1035.165039,1330.672241,1033.790161C1335.103271,1031.896973,1336.966064,1031.663452,1339.056396,1032.738892C1341.625244,1034.060547,1343.231812,1037.234741,1342.729858,1039.996704C1342.277466,1042.485596,1340.939697,1044.49292,1337.884766,1047.266357C1335.578125,1049.360474,1334.608276,1050.54541,1333.584229,1052.520508C1331.664063,1056.224121,1330.718994,1057.337524,1328.694824,1058.279907C1326.193115,1059.444824,1323.559692,1059.420166,1321.129272,1058.208984z"/>
</svg>
