<?xml version="1.0" encoding="UTF-8" standalone="no"?>
<svg xmlns="http://www.w3.org/2000/svg" xmlns:xlink="http://www.w3.org/1999/xlink" width="72.288mm" height="68.725mm" viewBox="1376.103394 -1095.090332 72.287842 68.725220">
    <path transform="matrix(1,0,0,-1,0,0)" style="stroke:none;fill:#500a78;fill-rule:evenodd" d="M1398.582397,1094.602783C1395.457275,1093.487671,1393.209717,1090.809448,1392.683105,1087.573242C1392.503784,1086.471558,1392.44458,1082.914307,1392.551514,1079.667969C1392.771118,1073.001343,1393.155762,1071.657104,1395.409424,1069.678345C1400.086426,1065.571899,1406.868164,1066.756104,1409.698242,1072.173584L1410.702515,1074.095947L1410.595215,1081.338257C1410.474487,1089.479126,1410.327881,1090.068481,1407.790649,1092.605591C1405.512207,1094.884155,1401.692139,1095.712646,1398.582397,1094.602783zM1404.315796,1091.043335C1405.568604,1090.403931,1406.42395,1089.365234,1406.978516,1087.810181C1407.558472,1086.184204,1407.66748,1076.536743,1407.12793,1074.594116C1406.695557,1073.037598,1404.485352,1070.938477,1402.916138,1070.59375C1400.425293,1070.046631,1397.71582,1071.313599,1396.569092,1073.561401C1395.927124,1074.819824,1395.849365,1075.628174,1395.849365,1081.047729C1395.849365,1086.428101,1395.930664,1087.287354,1396.559937,1088.557373C1398.038452,1091.54126,1401.295044,1092.585083,1404.315796,1091.043335z"/>
    <path transform="matrix(1,0,0,-1,0,0)" style="stroke:none;fill:#500a78;fill-rule:evenodd" d="M1420.147461,1094.641113C1417.05603,1093.483887,1414.825684,1090.929443,1414.176514,1087.802734C1413.547607,1084.773071,1413.881592,1074.501831,1414.66748,1072.70752C1417.659546,1065.876099,1427.361328,1065.382813,1430.959717,1071.879272L1432.004639,1073.765747L1432.004639,1081.173096C1432.004639,1087.720215,1431.928345,1088.723877,1431.347778,1089.815063C1430.419434,1091.560303,1428.71228,1093.283203,1427.07666,1094.12561C1425.321533,1095.029785,1421.871338,1095.286377,1420.147461,1094.641113zM1425.879883,1091.02478C1426.404785,1090.753296,1427.203979,1090.012939,1427.655762,1089.379517C1428.437988,1088.282959,1428.482422,1087.898438,1428.585205,1081.342896C1428.690308,1074.645508,1428.671021,1074.424438,1427.876953,1073.22998C1427.427979,1072.554565,1426.347656,1071.634644,1425.476196,1071.185547C1422.80603,1069.809814,1420.166748,1070.481079,1418.269775,1073.018433C1417.611084,1073.899536,1417.531982,1074.578857,1417.430664,1080.222412C1417.369019,1083.649536,1417.416382,1086.974121,1417.535767,1087.610352C1417.801636,1089.027588,1419.78894,1091.086548,1421.33667,1091.54834C1422.662598,1091.94397,1424.515137,1091.730469,1425.879883,1091.02478z"/>
    <path transform="matrix(1,0,0,-1,0,0)" style="stroke:none;fill:#500a78;fill-rule:evenodd" d="M1380.858154,1073.629395C1378.956909,1072.753662,1377.612793,1071.428833,1376.792969,1069.622559C1376.208984,1068.336182,1376.110718,1067.288452,1376.104004,1062.282959C1376.09668,1056.694092,1376.13562,1056.36499,1377.013306,1054.60376C1378.311035,1051.999512,1380.484863,1050.553711,1383.379761,1050.369385C1385.993164,1050.203003,1387.734497,1050.724487,1389.374878,1052.164673C1391.867065,1054.352905,1392.145752,1055.372192,1392.145752,1062.30188C1392.145752,1067.954834,1392.081543,1068.593506,1391.384277,1069.88562C1389.282593,1073.78064,1384.714111,1075.405518,1380.858154,1073.629395zM1386.106689,1070.631592C1386.75,1070.362793,1387.61792,1069.590088,1388.0354,1068.914429C1388.725342,1067.798218,1388.794678,1067.196777,1388.794678,1062.330933C1388.794678,1056.34668,1388.52771,1055.366577,1386.572998,1054.174683C1385.203979,1053.339966,1383.48584,1053.291504,1381.902222,1054.042969C1379.829468,1055.026611,1379.474854,1055.960693,1379.328125,1060.823975C1379.163696,1066.275757,1379.416748,1067.998413,1380.586182,1069.388184C1382.063477,1071.143799,1383.894043,1071.556152,1386.106689,1070.631592z"/>
    <path transform="matrix(1,0,0,-1,0,0)" style="stroke:none;fill:#500a78;fill-rule:evenodd" d="M1437.536133,1073.758789C1435.384155,1072.824097,1434.213623,1071.728027,1433.3479,1069.837036C1432.52356,1068.036377,1432.493408,1067.70752,1432.599487,1061.665039C1432.708252,1055.467041,1432.72522,1055.346191,1433.683105,1053.900146C1435.158081,1051.673584,1437.111328,1050.541626,1439.770996,1050.372314C1442.443848,1050.202148,1444.165039,1050.718506,1445.846802,1052.195068C1448.103638,1054.176636,1448.391235,1055.318848,1448.391235,1062.30188C1448.391235,1069.328247,1448.083008,1070.525391,1445.786865,1072.417969C1443.561279,1074.252563,1440.003784,1074.830688,1437.536133,1073.758789zM1442.563721,1070.578369C1443.191772,1070.280273,1444.049072,1069.425293,1444.468872,1068.678467C1445.151367,1067.464111,1445.232056,1066.792725,1445.232056,1062.330688C1445.232056,1056.636353,1444.876709,1055.3125,1443.048706,1054.197998C1440.756226,1052.800293,1437.472778,1053.657227,1436.326172,1055.952637C1435.512085,1057.582153,1435.421021,1066.723145,1436.203857,1068.227661C1437.560791,1070.835449,1440.068481,1071.762451,1442.563721,1070.578369z"/>
    <path transform="matrix(1,0,0,-1,0,0)" style="stroke:none;fill:#500a78;fill-rule:evenodd" d="M1409.253296,1064.644775C1404.493774,1063.536987,1403.200562,1062.450317,1394.291016,1052.072632C1387.434937,1044.086792,1386.854736,1043.013184,1386.854736,1038.315918C1386.854736,1035.368408,1386.97229,1034.725464,1387.831909,1032.975098C1388.369385,1031.880615,1389.504395,1030.344238,1390.354248,1029.560913C1393.905273,1026.287598,1397.436279,1025.602173,1402.75769,1027.153076C1409.684082,1029.171631,1414.23877,1029.21582,1421.246216,1027.33252C1424.443359,1026.473145,1425.764893,1026.279175,1427.484619,1026.416504C1435.775146,1027.078979,1440.500488,1036.277344,1436.587402,1044.136108C1435.257813,1046.806396,1423.561279,1060.327881,1420.953735,1062.209229C1417.721191,1064.541382,1413.016357,1065.520752,1409.253296,1064.644775zM1416.559204,1060.833618C1419.000488,1059.921387,1420.675659,1058.309814,1427.780884,1050.037598C1433.582031,1043.283813,1434.650146,1041.529907,1434.650146,1038.757568C1434.650146,1035.776001,1433.998413,1034.128174,1432.011963,1032.086548C1429.127808,1029.122314,1427.55835,1028.961548,1420.717041,1030.929688C1418.332764,1031.615601,1417.047485,1031.744141,1412.427856,1031.758545C1407.297241,1031.774536,1406.699707,1031.703613,1402.727661,1030.606934C1397.956787,1029.289795,1396.648315,1029.315308,1394.159058,1030.774048C1389.952271,1033.239136,1388.673218,1039.319702,1391.48877,1043.468506C1392.270386,1044.620361,1395.190552,1048.067993,1402.439697,1056.397339C1403.581055,1057.708984,1405.070801,1059.159668,1405.75,1059.621216C1408.794067,1061.689697,1413.00415,1062.161987,1416.559204,1060.833618z"/>
</svg>
