<?xml version="1.0" encoding="UTF-8" standalone="no"?>
<svg xmlns="http://www.w3.org/2000/svg" xmlns:xlink="http://www.w3.org/1999/xlink" width="78.059mm" height="74.587mm" viewBox="1196.666260 -1098.819946 78.059326 74.587036">
    <path transform="matrix(1,0,0,-1,0,0)" style="stroke:none;fill:#500a78;fill-rule:evenodd" d="M1223.715332,1098.645996C1217.770874,1097.483398,1212.953247,1089.62561,1213.586182,1082.12439C1213.85437,1078.946411,1215.356812,1075.026001,1217.03894,1073.11499C1221.620605,1067.90979,1229.925537,1069.636963,1232.592773,1076.349731C1234.093018,1080.125244,1233.359619,1089.005981,1231.115234,1094.241699C1229.730957,1097.471191,1226.757568,1099.240845,1223.715332,1098.645996z"/>
    <path transform="matrix(1,0,0,-1,0,0)" style="stroke:none;fill:#500a78;fill-rule:evenodd" d="M1245.176636,1098.641479C1242.784668,1097.921021,1241.077759,1096.227539,1240.013306,1093.518799C1238.115967,1088.690308,1237.428101,1080.362061,1238.639282,1076.880127C1240,1072.968506,1243.857666,1070.068848,1247.701172,1070.068848C1256.189819,1070.068848,1260.793823,1082.099731,1255.95752,1091.643677C1253.579346,1096.336792,1248.490723,1099.639771,1245.176636,1098.641479z"/>
    <path transform="matrix(1,0,0,-1,0,0)" style="stroke:none;fill:#500a78;fill-rule:evenodd" d="M1201.967041,1078.347656C1198.076904,1076.015747,1195.724731,1068.269531,1197.027588,1062.081055C1198.523071,1054.978516,1202.945801,1051.56897,1208.619507,1053.144775C1210.565796,1053.685303,1213.167236,1055.92627,1214.36792,1058.096436C1215.338745,1059.851074,1215.425171,1060.285889,1215.414795,1063.360107C1215.404175,1066.478394,1215.309326,1066.919189,1214.049072,1069.709229C1210.224609,1078.175781,1206.328125,1080.96167,1201.967041,1078.347656z"/>
    <path transform="matrix(1,0,0,-1,0,0)" style="stroke:none;fill:#500a78;fill-rule:evenodd" d="M1263.729004,1078.572021C1261.890625,1077.450928,1260.063843,1074.984863,1258.078491,1070.943848C1255.8479,1066.403931,1255.208984,1063.677979,1255.812744,1061.276855C1257.735474,1053.630127,1265.533691,1050.265259,1270.83667,1054.794312C1275.180786,1058.504517,1276.062012,1068.448242,1272.611572,1074.823975C1270.52417,1078.680664,1266.613525,1080.330933,1263.729004,1078.572021z"/>
    <path transform="matrix(1,0,0,-1,0,0)" style="stroke:none;fill:#500a78;fill-rule:evenodd" d="M1230.870972,1067.451904C1227.212402,1066.26416,1224.208618,1063.594482,1221.698975,1059.299927C1219.799683,1056.049927,1217.852539,1053.886353,1214.583862,1051.393555C1210.890015,1048.57666,1208.704102,1046.131348,1207.378418,1043.333008C1206.360962,1041.185059,1206.255005,1040.645508,1206.255005,1037.610474C1206.255005,1034.585815,1206.362793,1034.031982,1207.361938,1031.923218C1209.635864,1027.124023,1213.439819,1024.48938,1218.424927,1024.261108C1220.828003,1024.151001,1221.551758,1024.296265,1225.881958,1025.75769C1234.544312,1028.681274,1236.880127,1028.696167,1245.055786,1025.880127C1248.755981,1024.605713,1249.688599,1024.419678,1252.468384,1024.402588C1255.37085,1024.384644,1255.854004,1024.484131,1258.005371,1025.542358C1264.466553,1028.720215,1267.162964,1037.098755,1263.896362,1043.84668C1262.729492,1046.25708,1260.83252,1048.31543,1257.026611,1051.300903C1253.165649,1054.329712,1251.86084,1055.786987,1249.368652,1059.854004C1247.430176,1063.017456,1244.502808,1065.901001,1242.160034,1066.954712C1240.015259,1067.919434,1233.231445,1068.21814,1230.870972,1067.451904zM1241.434204,1059.460327C1241.057007,1059.436768,1240.774902,1059.394775,1240.455688,1059.314575C1239.112427,1058.977173,1237.828491,1058.137329,1236.647461,1056.823486C1236.250366,1056.381836,1235.828369,1055.839111,1235.470825,1055.310425C1235.419434,1055.234375,1235.375122,1055.171387,1235.372192,1055.17041C1235.369385,1055.169434,1235.350952,1055.203735,1235.331177,1055.246826C1235.07373,1055.807373,1234.727417,1056.393311,1234.371338,1056.87085C1233.452881,1058.102539,1232.295044,1058.883545,1231.023804,1059.128906C1230.57605,1059.215332,1230.004639,1059.241211,1229.576538,1059.19458C1229.081543,1059.140625,1228.613892,1059.001953,1228.143433,1058.769775C1227.647949,1058.525146,1227.236694,1058.231445,1226.824097,1057.827515C1226.171021,1057.18811,1225.675537,1056.395508,1225.389404,1055.532349C1225.215698,1055.008301,1225.11731,1054.497803,1225.068359,1053.866455C1225.053589,1053.67749,1225.056152,1052.997559,1225.072266,1052.782471C1225.167969,1051.504639,1225.499756,1050.205933,1226.185181,1048.425049C1227.832397,1044.144775,1230.100952,1040.091553,1232.878662,1036.465698C1232.965942,1036.351807,1233.038696,1036.255127,1233.040283,1036.250854C1233.04187,1036.246582,1232.996704,1036.198975,1232.939941,1036.145142C1232.473145,1035.703003,1232.021484,1035.106567,1231.65332,1034.445679C1230.855103,1033.013184,1230.346313,1031.095825,1230.220337,1029.04541C1230.211548,1028.903198,1230.202148,1028.531006,1230.207397,1028.536255C1230.209473,1028.538208,1230.241455,1028.595459,1230.278564,1028.663452C1231.098755,1030.166748,1232.238281,1031.740479,1233.602539,1033.253784C1233.97937,1033.671631,1234.601196,1034.3302,1234.61438,1034.325317C1234.617554,1034.324097,1234.678223,1034.256104,1234.74939,1034.174072C1235.041504,1033.837402,1235.442749,1033.391479,1235.76709,1033.042847C1236.048828,1032.740112,1236.057007,1032.733398,1235.87793,1032.951904C1235.531982,1033.374146,1235.152588,1033.851318,1234.82959,1034.270752L1234.70752,1034.429199L1234.975098,1034.702271C1235.857422,1035.602783,1236.818848,1036.455688,1238.189697,1037.553589C1238.579468,1037.865845,1238.911011,1038.127197,1239.670044,1038.720581C1242.148071,1040.657959,1242.927124,1041.32312,1244.394287,1042.753906C1245.165283,1043.505859,1245.872681,1044.289429,1246.414429,1044.991333C1247.62915,1046.565308,1248.380981,1048.142334,1248.718872,1049.825317C1248.786987,1050.164429,1248.855103,1050.591187,1248.886475,1050.876587C1248.928955,1051.261108,1248.941162,1051.496826,1248.941162,1051.927734C1248.941162,1052.305054,1248.935547,1052.445068,1248.908081,1052.753418C1248.70874,1054.989502,1247.708984,1056.901978,1246.11377,1058.099121C1245.292725,1058.715332,1244.299927,1059.140015,1243.230957,1059.33252C1242.935791,1059.385742,1242.633545,1059.424316,1242.310791,1059.450195C1242.144165,1059.463501,1241.588135,1059.469971,1241.434204,1059.460327zM1230.278564,1057.762085C1231.234619,1057.648193,1232.037964,1057.202393,1232.730835,1056.401611C1233.356934,1055.677856,1233.866943,1054.673828,1234.203491,1053.502686C1234.302368,1053.158569,1234.337402,1052.994629,1234.564575,1051.813477C1234.726807,1050.969727,1234.787231,1050.668457,1234.793091,1050.674927C1234.797485,1050.67981,1235.060791,1051.160034,1235.378296,1051.742188C1236.075562,1053.020996,1236.140747,1053.135986,1236.398804,1053.542725C1237.477905,1055.243652,1238.719849,1056.493042,1239.937866,1057.102905C1240.434204,1057.35144,1240.873779,1057.480591,1241.354126,1057.518921C1241.490234,1057.529785,1241.894531,1057.523438,1242.085205,1057.507568C1243.049561,1057.42688,1243.88501,1057.152832,1244.591309,1056.685425C1245.6073,1056.013306,1246.292725,1054.99707,1246.605713,1053.698975C1246.805786,1052.869385,1246.84314,1051.949341,1246.714966,1051.007446C1246.610352,1050.238037,1246.401123,1049.483398,1246.091675,1048.759644C1246.012451,1048.574219,1245.820801,1048.1875,1245.709595,1047.988525C1245.055542,1046.817993,1244.159058,1045.731812,1242.72876,1044.376465C1241.954956,1043.643311,1241.350708,1043.108887,1240.615723,1042.507568C1240.012085,1042.013672,1239.465942,1041.587036,1238.291504,1040.692139C1237.995483,1040.466553,1237.633667,1040.190308,1237.487671,1040.078369C1235.716675,1038.720703,1234.740967,1037.893555,1233.53125,1036.724365C1233.377808,1036.57605,1233.250122,1036.453857,1233.247559,1036.453003C1233.241699,1036.450806,1233.164551,1036.563232,1232.865112,1037.011108C1230.741211,1040.1875,1228.992554,1043.588867,1227.661133,1047.133789C1227.32373,1048.032104,1226.964966,1049.08313,1226.769775,1049.745483C1226.30542,1051.321411,1226.134888,1052.55603,1226.230713,1053.648193C1226.324707,1054.719604,1226.688599,1055.655762,1227.30249,1056.405273C1227.848755,1057.072021,1228.513672,1057.515259,1229.234619,1057.692871C1229.401245,1057.734009,1229.548706,1057.756836,1229.769287,1057.775879C1229.844971,1057.782349,1230.185791,1057.773193,1230.278564,1057.762085z"/>
</svg>
